<svg width="278" height="44" viewBox="0 0 278 44" fill="none" xmlns="http://www.w3.org/2000/svg">
<rect width="277" height="43.7341" transform="translate(0.691406 0.0686035)" fill="#1551E5"/>
<path d="M160.367 15.6708L150.92 5.0686L156.278 29.1644L175.736 5.0686L160.367 15.6708ZM34.3142 26.1352L47.286 11.8154L32.7632 17.4607L5.69141 11.9531L34.3142 26.1352Z" fill="#FF0011"/>
<path d="M150.356 11.2646L144.716 30.9543H154.586L150.356 11.2646ZM173.198 11.2646L157.97 30.9543H167.558L173.198 11.2646ZM266.962 13.3299C265.355 13.3609 263.79 13.8385 262.45 14.7068C261.82 15.1885 261.251 15.7434 260.758 16.3591L261.322 13.743H255.4L249.055 35.9111H255.682L257.797 29.0266C258.361 30.4035 259.63 31.2297 261.322 31.2297H262.45C264.142 30.9543 265.834 30.2658 267.526 29.1643C268.513 28.4759 269.5 27.512 270.346 26.4105C271.051 25.309 271.756 23.7944 272.179 22.2798C272.884 19.8014 272.884 17.736 272.038 15.946C271.192 14.2937 269.5 13.3299 266.962 13.3299ZM265.552 22.2798C265.129 23.519 264.565 24.4828 263.86 25.0336C263.437 25.5844 263.014 25.7221 262.45 25.9974C262.076 26.0502 261.696 26.0502 261.322 25.9974C260.335 25.9974 259.912 25.8597 259.489 25.0336C259.207 24.3451 259.207 23.3813 259.489 22.2798C259.912 20.6275 260.617 19.8014 261.181 19.3883C261.463 18.9752 262.309 18.2868 263.437 18.2868C265.27 18.2868 266.257 19.6637 265.411 22.4175M121.31 13.3299C119.751 13.3865 118.238 13.863 116.939 14.7068C116.259 15.1797 115.643 15.7349 115.106 16.3591L115.811 13.743H109.748L103.404 35.9111H110.03L112.004 29.0266C112.709 30.4035 113.978 31.2297 115.67 31.2297H116.798C118.49 30.9543 120.182 30.2658 121.874 29.1643C122.861 28.4759 123.707 27.512 124.553 26.4105C125.258 25.309 125.963 23.7944 126.527 22.2798C127.232 19.8014 127.091 17.736 126.386 15.946C125.54 14.2937 123.848 13.3299 121.169 13.3299M119.759 22.2798C119.477 23.519 118.913 24.4828 118.208 25.0336C117.785 25.5844 117.221 25.7221 116.798 25.9974C116.378 26.0643 115.95 26.0643 115.529 25.9974C114.542 25.9974 114.119 25.8597 113.837 25.0336C113.414 24.3451 113.414 23.3813 113.837 22.2798C114.26 20.6275 114.965 19.8014 115.529 19.3883C115.811 18.9752 116.657 18.2868 117.785 18.2868C119.618 18.2868 120.605 19.6637 119.759 22.4175M6.25537 38.5273L23.1752 31.9181L55.0409 38.8026L21.2012 21.8667L6.25537 38.5273ZM31.0712 6.4454C30.4782 6.48045 29.8982 6.62949 29.3644 6.88396C28.8307 7.13842 28.3536 7.49332 27.9606 7.92827C27.5676 8.36323 27.2664 8.86968 27.0743 9.41858C26.8822 9.96747 26.803 10.548 26.8412 11.1269C27.1232 13.4676 29.3792 15.2576 31.7761 15.2576C32.3819 15.2233 32.9744 15.0699 33.5181 14.8068C34.0618 14.5437 34.5456 14.1762 34.9405 13.7263C35.3354 13.2764 35.6333 12.7534 35.8164 12.1884C35.9995 11.6235 36.064 11.0283 36.0061 10.4384C35.971 9.84685 35.814 9.26829 35.5445 8.73734C35.2751 8.20639 34.8988 7.73397 34.4381 7.34834C33.9774 6.9627 33.4417 6.67178 32.8632 6.49298C32.2847 6.31417 31.6752 6.25116 31.0712 6.30771M242.992 25.9974C242.664 26.4249 242.238 26.7719 241.749 27.0109C241.259 27.2499 240.72 27.3743 240.172 27.3743C239.044 27.3743 238.48 27.099 237.916 26.5482C237.493 25.8597 237.352 25.1713 237.634 24.0698H250.324C251.311 21.0406 251.311 18.4245 250.042 16.4968C248.914 14.5691 246.799 13.4676 243.556 13.4676L241.864 13.6053C239.375 13.9748 237.05 15.0439 235.172 16.682C233.294 18.3201 231.945 20.4565 231.289 22.8306C230.584 25.5844 231.007 27.6497 232.276 29.302C233.686 30.6789 235.66 31.505 238.48 31.505C240.555 31.527 242.615 31.1528 244.543 30.4035C246.645 29.5121 248.381 27.9615 249.478 25.9974H242.992ZM241.864 17.736H242.71C243.556 17.736 244.12 18.0114 244.402 18.5622C244.825 19.1129 244.966 19.9391 244.825 20.7652H238.762C239.185 19.1129 240.172 18.0114 241.864 17.736ZM190.259 14.0184C189.131 13.743 187.58 13.4676 185.606 13.4676C184.232 13.4779 182.863 13.6162 181.517 13.8807C180.107 14.1561 178.979 14.5691 177.992 14.9822C177.162 15.4343 176.435 16.0455 175.854 16.779C175.272 17.5125 174.848 18.3532 174.608 19.2506H181.235L181.517 18.8375C181.658 18.4245 182.222 18.0114 182.645 17.8737C183.093 17.6953 183.571 17.6018 184.055 17.5983C184.619 17.5983 185.042 17.5983 185.465 17.8737C185.888 17.8737 186.17 18.5622 186.029 18.9752C185.747 19.6637 184.901 20.2144 183.632 20.3521L177.005 21.4536C176.167 21.6736 175.361 21.9975 174.608 22.4175C174.044 22.8306 173.339 23.2436 172.775 23.9321C172.211 24.6205 171.788 25.309 171.506 26.4105C171.083 28.0628 171.365 29.302 172.352 30.2658C173.198 31.092 174.467 31.505 176.018 31.505C178.587 31.625 181.106 30.7884 183.068 29.1643L182.786 30.9543H189.836C189.836 30.9543 189.272 30.6789 189.554 29.8528L192.233 20.6275L192.797 17.736C192.797 16.9099 192.797 16.2214 192.374 15.533C192.092 14.8445 191.387 14.4314 190.259 14.1561M183.209 26.5482C182.753 27.0533 182.17 27.4331 181.517 27.6497H180.389C178.838 27.6497 178.274 27.2366 178.415 26.2728C178.697 25.8597 178.979 25.309 179.402 25.0336L180.812 24.4828L182.645 24.2075L184.619 23.6567C184.478 24.7582 184.055 25.7221 183.209 26.5482ZM203.795 26.1351C203.515 26.4024 203.185 26.613 202.822 26.7548C202.459 26.8965 202.071 26.9667 201.68 26.9613C200.693 26.9613 200.129 26.5482 199.847 25.7221C199.565 25.0336 199.565 23.6567 200.129 22.0044C200.27 21.5913 200.834 20.2144 201.398 19.6637C201.68 19.1129 202.103 18.6998 202.667 18.4245C203.09 18.1491 203.654 18.0114 204.218 18.0114C205.064 18.0114 205.487 18.2868 205.769 18.6998C206.192 19.1129 206.192 19.6637 206.051 20.4898H212.819C213.242 18.0114 212.678 16.0837 211.268 14.9822C209.858 14.0184 207.884 13.6053 205.628 13.6053C202.808 13.6053 200.27 14.2937 198.014 15.946C195.729 17.6197 194.09 19.9967 193.361 22.6929C192.515 25.4467 192.797 27.6497 194.207 29.302C195.617 30.6789 197.591 31.505 200.411 31.505C202.727 31.5053 205.005 30.9371 207.038 29.8528C208.103 29.2864 209.058 28.5406 209.858 27.6497C210.704 26.8236 211.268 25.7221 211.832 24.3451H205.064C204.782 25.1713 204.359 25.7221 203.795 26.1351ZM105.236 16.0837C104.108 14.4314 101.994 13.3299 98.6095 13.3299C97.7567 13.3458 96.9072 13.438 96.0716 13.6053C93.9566 14.0184 91.9826 14.8445 90.4316 16.0837C88.3803 17.7131 86.9015 19.9274 86.2017 22.4175C85.6377 24.8959 85.7787 26.9613 86.7657 28.7512C87.8936 30.5412 90.0086 31.505 93.3926 31.505C94.3796 31.505 95.2256 31.505 96.2126 31.2297C98.1868 30.8663 100.032 30.0128 101.571 28.7512C103.622 27.1219 105.101 24.9075 105.8 22.4175C106.505 19.9391 106.364 17.8737 105.236 16.0837ZM99.3145 22.4175C98.8915 23.7944 98.3275 24.8959 97.4816 25.7221C97.0586 26.2728 96.0716 27.099 94.6616 27.099C93.6746 27.099 92.9696 26.6859 92.6876 25.7221C92.3412 24.6465 92.3412 23.493 92.6876 22.4175C93.1106 21.0406 93.6746 19.9391 94.5206 18.9752C94.8768 18.598 95.3149 18.3032 95.8029 18.1127C96.2908 17.9221 96.8162 17.8404 97.3406 17.8737C98.3275 17.8737 99.1735 18.1491 99.4555 18.9752C99.7375 19.9391 99.7375 21.0406 99.3145 22.4175ZM128.501 18.6998H133.718L130.193 30.9543H136.82L140.345 18.5622H145.139L146.549 13.743H129.911L128.501 18.6998ZM214.511 18.6998H219.727L216.344 30.9543H222.829L226.495 18.5622H231.289L232.699 13.743H216.062L214.511 18.6998ZM68.7178 13.743L63.7829 30.9543H70.4098L73.9348 18.5622H79.2927L75.7678 30.9543H82.5357L87.4706 13.743H68.7178ZM56.1689 25.9974C55.8946 26.2712 55.5648 26.4861 55.2007 26.6283C54.8365 26.7706 54.4459 26.8371 54.0539 26.8236C53.067 26.8236 52.503 26.4105 52.221 25.5844C51.939 24.8959 51.939 23.6567 52.503 21.8667C52.8391 21.0444 53.2645 20.2597 53.7719 19.526C54.0539 18.9752 54.4769 18.5622 55.0409 18.2868C55.4639 18.0114 56.0279 17.8737 56.5919 17.8737C57.4379 17.8737 57.8609 18.1491 58.1429 18.5622C58.5659 18.9752 58.5659 19.6637 58.4249 20.3521H64.9108C65.3338 17.8737 64.7699 15.946 63.3599 14.8445C61.9499 13.8807 59.8349 13.4676 57.7199 13.4676C54.92 13.387 52.1762 14.2446 49.9446 15.8979C47.7129 17.5511 46.1279 19.9004 45.453 22.5552C44.607 25.309 44.889 27.512 46.299 29.1643C47.709 30.5412 49.683 31.3674 52.503 31.3674C54.8542 31.4333 57.1837 30.9119 59.2709 29.8528C60.3333 29.2817 61.2872 28.5365 62.0909 27.6497C62.7959 26.8236 63.5009 25.7221 64.0649 24.3451H57.2969C57.0149 25.1713 56.5919 25.7221 56.0279 26.1351" fill="white"/>
</svg>
