<svg width="158" height="40" viewBox="0 0 158 40" fill="none" xmlns="http://www.w3.org/2000/svg">
<path d="M150.502 34.1625C153.512 34.1625 155.644 33.6191 157.233 32.4486V27.1396C155.602 28.2683 153.638 28.9789 150.879 28.9789C146.239 28.9789 144.316 25.3838 144.316 19.6986C144.316 13.7207 146.657 10.6691 150.921 10.6691C153.429 10.6691 155.895 11.547 157.191 12.383V6.86499C155.812 6.11253 153.429 5.56909 150.168 5.56909C141.849 5.56909 137.543 11.547 137.543 19.9076C137.585 29.0625 141.807 34.1625 150.502 34.1625ZM109.828 31.7379V26.4289C107.821 27.8084 104.393 29.0207 101.258 29.0207C96.4927 29.0207 94.6951 26.7634 94.4025 22.165H110.121V18.7371C110.121 9.16417 105.898 5.56909 99.4189 5.56909C91.4763 5.56909 87.714 11.6306 87.714 19.9494C87.714 29.5224 92.4378 34.1625 100.715 34.1625C104.853 34.1625 107.905 33.0338 109.828 31.7379ZM50.1746 6.07073V16.9396H41.4796V6.07073H34.9583V33.6191H41.4796V22.1232H50.1746V33.6191H56.696V6.07073H50.1746ZM86.0837 28.4355H83.1992V6.07073H64.2205V8.41171C64.2205 15.142 63.8025 23.8371 61.5033 28.4355H59.4132V39.8896H65.4328V33.6191H80.0222V39.8896H86.0418V28.4355H86.0837ZM130.604 33.6191H138.003L127.552 18.7789L136.749 6.07073H130.186L120.989 18.7789V6.07073H114.468V33.6191H120.989V20.0748L130.604 33.6191ZM99.2517 10.6691C102.471 10.6691 103.474 13.3445 103.474 16.8142V17.3576H94.4025C94.5697 12.9683 96.1582 10.6691 99.2517 10.6691ZM76.6779 28.4355H67.4812C69.2787 24.297 69.7804 16.7724 69.7804 12.0068V11.1707H76.6779V28.4355Z" fill="black"/>
<path d="M25.4406 38.757H18.7939V5.85787H15.8259C10.3915 5.85787 7.54884 8.57508 7.54884 12.63C7.54884 17.2284 9.51359 19.3603 13.5685 22.0775L16.9128 24.3349L7.29802 38.757H0.149658L8.80293 25.8816C3.82835 22.3284 1.02753 18.8587 1.02753 13.0062C1.02753 5.69065 6.12753 0.716064 15.7841 0.716064H25.3988V38.757H25.4406Z" fill="#FC3F1D"/>
</svg>
