<svg width="106" height="26" viewBox="0 0 106 26" fill="none" xmlns="http://www.w3.org/2000/svg"><path d="M45.113 10.556c-.196-1.535-.872-2.71-2.028-3.524-1.14-.83-2.533-1.245-4.178-1.245-1.906 0-3.477.665-4.715 1.997-1.238 1.331-1.857 3.07-1.857 5.216 0 2.146.619 3.885 1.857 5.216 1.238 1.332 2.81 1.997 4.715 1.997 1.645 0 3.054-.454 4.227-1.362 1.189-.925 1.897-2.233 2.125-3.924h6.206c-.147 3.148-1.4 5.701-3.763 7.66-2.345 1.942-5.277 2.913-8.795 2.913-3.632 0-6.637-1.167-9.015-3.5-2.362-2.35-3.543-5.35-3.543-9 0-3.65 1.181-6.642 3.543-8.976C32.27 1.674 35.275.5 38.907.5c3.388 0 6.238.932 8.551 2.796 2.33 1.848 3.648 4.269 3.958 7.26h-6.303ZM71.472 25.03v-9.422H60.967v9.422h-6.01V.97h6.01v9.328h10.505V.97h6.01v24.06h-6.01ZM102.384 22c-2.41 2.333-5.456 3.5-9.137 3.5s-6.727-1.167-9.138-3.5c-2.41-2.35-3.616-5.35-3.616-9 0-3.65 1.206-6.642 3.616-8.976C86.52 1.674 89.566.5 93.247.5c3.68 0 6.727 1.175 9.137 3.524C104.795 6.358 106 9.35 106 13c0 3.65-1.205 6.65-3.616 9Zm-14-3.784c1.288 1.332 2.908 1.997 4.863 1.997 1.954 0 3.567-.665 4.837-1.997 1.27-1.331 1.906-3.07 1.906-5.216 0-2.146-.635-3.885-1.906-5.216-1.27-1.332-2.883-1.997-4.837-1.997-1.955 0-3.575.673-4.862 2.02-1.27 1.332-1.906 3.063-1.906 5.193 0 2.13.635 3.869 1.906 5.216ZM23.35.97v24.06h-6.116v-8.21H14.07l-6.935 8.21H0l7.284-8.545c-1.762-.51-3.193-1.448-4.29-2.817-1.065-1.368-1.597-2.96-1.597-4.773 0-1.464.366-2.801 1.098-4.01A8.195 8.195 0 0 1 5.588 2.02C6.885 1.32 8.316.97 9.878.97H23.35Zm-6.116 10.932v-5.92h-6.557c-1.064 0-1.912.271-2.544.812-.6.51-.898 1.225-.898 2.148 0 .891.299 1.607.898 2.149.632.54 1.48.811 2.544.811h6.558Z" fill="#42B2FC"/></svg>