<svg width="281" height="125" viewBox="0 0 281 125" fill="none" xmlns="http://www.w3.org/2000/svg">
<rect width="280" height="125" transform="translate(0.133789)" fill="black"/>
<mask id="mask0_501_1380" style="mask-type:luminance" maskUnits="userSpaceOnUse" x="10" y="10" width="262" height="104">
<path d="M271.134 10H10.1338V113.271H271.134V10Z" fill="white"/>
</mask>
<g mask="url(#mask0_501_1380)">
<path d="M252.737 37.2625L249.128 80.5253H248.551L244.355 37.8693L226.949 39.1347L239.777 94.1275V111.954L257.914 113.271V94.786L271.134 35.9277L252.737 37.2625Z" fill="white"/>
<path d="M165.947 78.5836L157.282 44.1847L145.97 45.0052V105.146L156.411 105.904V72.2794L164.984 106.527L176.382 107.354V42.6882L165.947 43.5608V78.5836Z" fill="white"/>
<path d="M120.141 103.274L141.173 104.8V93.8502L130.772 93.3937V78.6183L139.455 78.6933V68.2171L130.772 68.3675V56.8859L141.173 56.4064V45.358L120.141 46.8835V103.274Z" fill="white"/>
<path d="M22.9212 12.0109V29.0628L19.0354 28.9184V11.3984L10.1396 10L10.1338 59.324L19.0354 57.9317V36.4996H22.9212V57.3247L30.514 56.1057V13.1954L22.9212 12.0109Z" fill="white"/>
<path d="M40.586 37.3435H40.3842L39.1216 14.5478L32.2148 13.473L37.346 45.2597V55.0658L43.5032 54.1009V44.757L47.7984 15.923L41.9005 14.9812L40.586 37.3435Z" fill="white"/>
<path d="M55.2475 17.0901L49.1768 16.1367V53.2165L54.3021 52.4132V43.8786L55.7087 43.763C60.0328 43.4107 61.3242 40.8739 61.3242 35.5405V23.9837C61.3242 20.2798 58.7182 17.6391 55.2475 17.0901ZM56.7697 36.4072C56.7697 37.5109 56.3891 38.1407 54.9998 38.1407H54.3021V22.672L55.2475 22.776C56.1587 22.8685 56.7697 23.2499 56.7697 24.6136V36.4072Z" fill="white"/>
<path d="M70.4439 44.9247L66.9098 45.3003V35.9219L69.9883 35.8815V30.9352L66.9098 30.8196V23.9723L70.4439 24.3536L70.4496 19.4594L62.9028 18.2748V51.0267L70.4496 49.8478L70.4439 44.9247Z" fill="white"/>
<path d="M75.0449 50.1537L70.4326 99.6338L78.1407 100.212L78.5963 91.7234L82.0554 91.8852L82.4473 100.524L90.4669 101.102L85.7855 49.3505L75.0449 50.1537ZM78.9941 84.61L80.349 59.2548H80.6083L81.7612 84.6794L78.9941 84.61Z" fill="white"/>
<path d="M202.267 38.661C192.98 39.4873 184.309 44.3181 184.309 57.5504V91.1633C184.309 104.361 191.095 110.313 202.527 111.301C214.934 112.37 222.792 104.176 222.792 94.1911V83.4203L207.335 83.166L207.283 92.816C207.305 93.3941 207.204 93.9699 206.987 94.5065C206.771 95.0428 206.445 95.5273 206.029 95.9287C205.613 96.3302 205.118 96.639 204.575 96.8356C204.032 97.0318 203.454 97.1115 202.879 97.0687C200.769 96.9591 199.05 95.4682 199.05 92.8449V57.3831C199.011 56.3195 199.385 55.2818 200.093 54.4895C200.802 53.6969 201.791 53.2114 202.85 53.136C205.767 52.9162 207.283 54.8694 207.283 57.227V64.0917L222.792 63.8662V54.6672C222.792 44.6705 214.034 37.6152 202.267 38.661Z" fill="white"/>
<path d="M103.439 47.0396C97.7832 47.5423 92.4849 50.5066 92.4849 58.5442V90.8338C92.4849 98.8713 96.6127 102.494 103.577 103.095C111.135 103.748 115.921 98.7558 115.921 92.6943V75.0934H104.327V84.1597L106.495 84.2347V91.8565C106.508 92.2085 106.446 92.5592 106.315 92.8859C106.184 93.2123 105.985 93.5075 105.732 93.7519C105.479 93.9963 105.177 94.1843 104.846 94.3038C104.516 94.4234 104.164 94.4715 103.814 94.4453C103.491 94.4353 103.175 94.3599 102.882 94.2238C102.59 94.0877 102.328 93.8937 102.112 93.6533C101.897 93.4129 101.732 93.1313 101.628 92.8255C101.524 92.5197 101.483 92.1959 101.508 91.8738V58.4286C101.482 57.7818 101.708 57.1498 102.138 56.667C102.569 56.1839 103.169 55.8873 103.814 55.8399C104.162 55.7871 104.517 55.8136 104.854 55.9169C105.19 56.0202 105.499 56.1978 105.758 56.4369C106.017 56.676 106.22 56.9702 106.35 57.2979C106.48 57.6254 106.536 57.9783 106.512 58.3303V66.4665L115.961 66.2526V56.8048C115.938 50.6856 110.605 46.4037 103.439 47.0396Z" fill="white"/>
</g>
</svg>
