<svg width="327" height="67" viewBox="0 0 327 67" fill="none" xmlns="http://www.w3.org/2000/svg">
<g clip-path="url(#clip0_501_1405)">
<path d="M38.8112 2.96021C38.5233 2.96021 38.2907 2.87155 38.1135 2.69424C37.9363 2.51693 37.8477 2.28421 37.8477 1.99607V1.49738C37.8477 1.20925 37.9363 0.976528 38.1135 0.799216C38.2907 0.599738 38.5233 0.5 38.8112 0.5H71.7699C72.0579 0.5 72.2904 0.599738 72.4676 0.799216C72.6448 0.976528 72.7334 1.20925 72.7334 1.49738V1.99607C72.7334 2.28421 72.6448 2.51693 72.4676 2.69424C72.2904 2.87155 72.0579 2.96021 71.7699 2.96021H61.2378C59.7759 2.96021 58.6241 3.3924 57.7824 4.2568C56.9407 5.09903 56.5199 6.24048 56.5199 7.68114V46.6455C56.5199 46.9336 56.4313 47.1774 56.2541 47.3769C56.0769 47.5542 55.8443 47.6429 55.5564 47.6429H55.058C54.7701 47.6429 54.5264 47.5542 54.3271 47.3769C54.1499 47.1774 54.0613 46.9336 54.0613 46.6455V7.68114C54.0613 6.21832 53.6404 5.06579 52.7987 4.22355C51.957 3.38132 50.8053 2.96021 49.3434 2.96021H38.8112Z" fill="#848484"/>
<path d="M1.0973 2.96021C0.809354 2.96021 0.576782 2.87155 0.399585 2.69424C0.222388 2.51693 0.133789 2.28421 0.133789 1.99607V1.49738C0.133789 1.20925 0.222388 0.976528 0.399585 0.799216C0.576782 0.599738 0.809354 0.5 1.0973 0.5H34.056C34.3439 0.5 34.5765 0.599738 34.7537 0.799216C34.9309 0.976528 35.0195 1.20925 35.0195 1.49738V1.99607C35.0195 2.28421 34.9309 2.51693 34.7537 2.69424C34.5765 2.87155 34.3439 2.96021 34.056 2.96021H23.5238C22.062 2.96021 20.9102 3.3924 20.0685 4.2568C19.2268 5.09903 18.806 6.24048 18.806 7.68114V46.6455C18.806 46.9336 18.7174 47.1774 18.5402 47.3769C18.363 47.5542 18.1304 47.6429 17.8425 47.6429H17.3441C17.0561 47.6429 16.8125 47.5542 16.6131 47.3769C16.4359 47.1774 16.3474 46.9336 16.3474 46.6455V7.68114C16.3474 6.21832 15.9265 5.06579 15.0848 4.22355C14.2431 3.38132 13.0914 2.96021 11.6295 2.96021H1.0973Z" fill="#848484"/>
<path d="M16.9383 66.5C16.691 66.5 16.4999 66.4335 16.3649 66.3006C16.23 66.1676 16.1626 66.0013 16.1626 65.8019C16.1626 65.7575 16.1851 65.6467 16.23 65.4694L34.5114 20.6205C34.6688 20.1994 34.8824 19.8891 35.1523 19.6896C35.4221 19.468 35.7819 19.3572 36.2316 19.3572H36.6026C37.4571 19.3572 38.0418 19.7783 38.3566 20.6205L56.638 65.4694C56.6829 65.6024 56.7054 65.7132 56.7054 65.8019C56.7054 66.0013 56.6267 66.1676 56.4693 66.3006C56.3344 66.4335 56.1433 66.5 55.8959 66.5H55.4912C55.1539 66.5 54.8503 66.4003 54.5805 66.2008C54.3106 66.0013 54.097 65.7132 53.9396 65.3364L51.1738 58.654C50.4992 56.9917 49.5997 55.817 48.4754 55.1299C47.3736 54.4206 45.7433 54.066 43.5846 54.066H36.3328C36.063 54.066 35.8493 53.9995 35.6919 53.8665C35.557 53.7336 35.4896 53.5562 35.4896 53.3346C35.4896 53.1573 35.5121 53.0132 35.557 52.9024L35.6245 52.7694C35.7819 52.4148 35.9955 52.1488 36.2653 51.9715C36.5352 51.772 36.895 51.6501 37.3447 51.6058H42.8426C44.0344 51.5837 44.9563 51.2734 45.6084 50.6749C46.2605 50.0543 46.5866 49.2453 46.5866 48.248C46.5866 47.5387 46.4179 46.7741 46.0806 45.954L39.672 30.1954C39.2448 29.2202 38.7613 28.522 38.2217 28.1009C37.682 27.6576 37.0749 27.436 36.4003 27.436C34.9836 27.436 33.9043 28.3558 33.1622 30.1954L18.9284 65.3364C18.6136 66.1122 18.0739 66.5 17.3094 66.5H16.9383Z" fill="#848484"/>
</g>
<g clip-path="url(#clip1_501_1405)">
<path d="M324.998 20.8688C325.552 21.3675 325.829 22.0575 325.829 22.9387C325.829 23.8201 325.552 24.5159 324.998 25.0261C324.432 25.5364 323.705 25.7915 322.816 25.7915C321.926 25.7915 321.199 25.5364 320.633 25.0261C320.079 24.5159 319.802 23.8201 319.802 22.9387C319.802 22.0575 320.079 21.3675 320.633 20.8688C321.199 20.3586 321.926 20.1035 322.816 20.1035C323.705 20.1035 324.432 20.3586 324.998 20.8688Z" fill="#353535"/>
<path d="M305.79 18.712V11.7716H303.192V8.8146L308.128 4.06592H310.9V7.63177H316.425V11.7716H310.9V18.0337C310.9 19.3672 311.2 20.2833 311.8 20.7819C312.401 21.2806 313.255 21.5299 314.364 21.5299C314.802 21.5299 315.236 21.4777 315.663 21.3734C316.101 21.269 316.425 21.153 316.633 21.0255L316.962 20.8863V25.1654C316.084 25.5944 314.97 25.8032 313.619 25.7915C310.997 25.7915 309.035 25.2175 307.73 24.0695C306.437 22.9215 305.79 21.1356 305.79 18.712Z" fill="#353535"/>
<path d="M300.005 25.4436H294.896V16.4681C294.896 14.9722 294.497 13.8299 293.7 13.0414C292.915 12.2413 291.813 11.8412 290.392 11.8412C288.949 11.8412 287.84 12.2644 287.066 13.111C286.281 13.9691 285.889 15.0881 285.889 16.4681V25.4436H280.779V7.6317H285.889V10.5887H286.183C286.31 10.3105 286.581 9.92779 286.997 9.44075C287.355 9.04647 287.737 8.71015 288.141 8.43187C288.614 8.10715 289.249 7.83464 290.046 7.61431C290.842 7.39398 291.679 7.28381 292.557 7.28381C294.786 7.28381 296.587 7.92741 297.961 9.21463C299.323 10.5134 300.005 12.4558 300.005 15.0418V25.4436Z" fill="#353535"/>
<path d="M276.536 16.5377L276.433 17.8944H261.71C261.71 18.9613 262.132 19.8774 262.975 20.6428C263.794 21.4197 264.978 21.8082 266.526 21.8082C267.403 21.8082 268.188 21.6574 268.881 21.3559C269.539 21.0544 269.972 20.7529 270.18 20.4514L270.509 20.0339H276.104C276.08 20.1963 276.028 20.3992 275.948 20.6428C275.855 20.9327 275.601 21.3907 275.185 22.0169C274.747 22.7011 274.221 23.2925 273.609 23.7911C272.94 24.313 271.999 24.771 270.786 25.1653C269.516 25.5828 268.096 25.7915 266.526 25.7915C263.5 25.7915 261.046 24.9739 259.165 23.3389C257.282 21.7038 256.341 19.4368 256.341 16.5377C256.341 13.6386 257.276 11.3715 259.147 9.73646C261.017 8.10135 263.454 7.28381 266.456 7.28381C269.435 7.28381 271.86 8.10135 273.73 9.73646C275.601 11.3715 276.536 13.6386 276.536 16.5377ZM269.903 12.363C269.083 11.6324 267.934 11.2672 266.456 11.2672C264.978 11.2672 263.835 11.6382 263.027 12.3804C262.195 13.1341 261.779 13.9285 261.779 14.7634H271.098C271.098 13.9053 270.7 13.1051 269.903 12.363Z" fill="#353535"/>
<path d="M246.971 0.5H252.08V25.4436H246.971V0.5Z" fill="#353535"/>
<path d="M222.706 20.4166C222.706 18.5844 223.456 17.2102 224.957 16.2941C226.458 15.3896 228.358 14.9374 230.656 14.9374C231.845 14.9374 232.913 15.0591 233.86 15.3027C234.806 15.5693 235.465 15.8129 235.834 16.0332L236.406 16.4333V13.8241C236.406 13.0588 236.117 12.4152 235.54 11.8933C234.962 11.3831 233.998 11.128 232.648 11.128C231.678 11.128 230.811 11.3077 230.05 11.6672C229.252 12.0383 228.854 12.6065 228.854 13.3719H223.606C223.618 11.3425 224.438 9.8176 226.066 8.7971C227.682 7.78825 229.876 7.28381 232.648 7.28381C235.453 7.28381 237.63 7.82884 239.177 8.91892C240.736 10.0089 241.515 11.644 241.515 13.8241V19.3903C241.515 20.1093 241.601 20.608 241.775 20.8863C241.948 21.1645 242.249 21.3037 242.676 21.3037L243.42 21.1645V25.4436C242.982 25.6755 242.249 25.7915 241.221 25.7915C239.893 25.7915 238.888 25.5016 238.207 24.9218C237.595 24.4231 237.208 23.965 237.046 23.5476L236.943 23.3041H236.683C236.683 23.3504 236.625 23.4548 236.51 23.6172C236.394 23.7679 236.169 23.9767 235.834 24.2434C235.511 24.5101 235.124 24.7478 234.674 24.9566C233.496 25.5132 231.955 25.7915 230.05 25.7915C227.948 25.7915 226.198 25.3334 224.801 24.4174C223.404 23.5128 222.706 22.1792 222.706 20.4166ZM232.145 21.9125C233.057 21.9125 233.877 21.7966 234.605 21.5646C235.297 21.3443 235.776 21.1182 236.042 20.8863L236.406 20.5558V19.4947C236.313 19.402 236.192 19.3034 236.042 19.199C235.846 19.0715 235.39 18.9149 234.674 18.7293C233.912 18.5322 233.069 18.4336 232.145 18.4336C229.351 18.4336 227.953 19.0135 227.953 20.1731C227.953 21.3327 229.351 21.9125 232.145 21.9125Z" fill="#353535"/>
<path d="M209.074 18.712V11.7716H206.477V8.8146L211.413 4.06592H214.184V7.63177H219.709V11.7716H214.184V18.0337C214.184 19.3672 214.484 20.2833 215.085 20.7819C215.685 21.2806 216.539 21.5299 217.648 21.5299C218.087 21.5299 218.52 21.4777 218.947 21.3734C219.386 21.269 219.709 21.153 219.917 21.0255L220.246 20.8863V25.1654C219.369 25.5944 218.254 25.8032 216.903 25.7915C214.283 25.7915 212.32 25.2175 211.014 24.0695C209.722 22.9215 209.074 21.1356 209.074 18.712Z" fill="#353535"/>
<path d="M182.765 25.7915C180.34 25.7915 178.302 24.9623 176.651 23.3041C175 21.6458 174.174 19.3904 174.174 16.5376C174.174 13.685 175 11.4295 176.651 9.77122C178.302 8.11296 180.34 7.28383 182.765 7.28383C184.081 7.28383 185.271 7.49256 186.333 7.91002C187.407 8.3507 188.135 8.77978 188.515 9.19723L189.087 9.80601H189.295V0.5H194.404V25.4436H189.295V22.5213H189.052C188.948 22.7532 188.654 23.1302 188.169 23.652C187.822 24.023 187.424 24.3594 186.974 24.6609C186.489 24.974 185.865 25.2407 185.103 25.461C184.353 25.6813 183.574 25.7915 182.765 25.7915ZM180.774 13.1457C179.884 14.0387 179.44 15.1693 179.44 16.5376C179.44 17.9176 179.884 19.0424 180.774 19.9122C181.651 20.7935 182.846 21.2342 184.359 21.2342C185.883 21.2342 187.084 20.7935 187.961 19.9122C188.85 19.0424 189.295 17.9176 189.295 16.5376C189.295 15.1345 188.844 13.9981 187.944 13.1284C187.032 12.2702 185.836 11.8412 184.359 11.8412C182.858 11.8412 181.662 12.276 180.774 13.1457Z" fill="#353535"/>
<path d="M170.105 25.4436H164.995V16.4681C164.995 14.9722 164.596 13.8299 163.8 13.0414C163.015 12.2413 161.912 11.8412 160.492 11.8412C159.048 11.8412 157.94 12.2644 157.166 13.111C156.381 13.9691 155.988 15.0881 155.988 16.4681V25.4436H150.879V7.6317H155.988V10.5887H156.283C156.41 10.3105 156.681 9.92779 157.097 9.44075C157.455 9.04647 157.836 8.71015 158.24 8.43187C158.713 8.10715 159.348 7.83464 160.145 7.61431C160.942 7.39398 161.779 7.28381 162.657 7.28381C164.885 7.28381 166.686 7.92741 168.06 9.21463C169.423 10.5134 170.105 12.4558 170.105 15.0418V25.4436Z" fill="#353535"/>
<path d="M146.636 16.5377L146.532 17.8944H131.81C131.81 18.9613 132.231 19.8774 133.074 20.6428C133.894 21.4197 135.077 21.8082 136.625 21.8082C137.502 21.8082 138.287 21.6574 138.98 21.3559C139.638 21.0544 140.071 20.7529 140.279 20.4514L140.608 20.0339H146.203C146.18 20.1963 146.128 20.3992 146.047 20.6428C145.954 20.9327 145.7 21.3907 145.285 22.0169C144.846 22.7011 144.321 23.2925 143.709 23.7911C143.039 24.313 142.098 24.771 140.885 25.1653C139.615 25.5828 138.195 25.7915 136.625 25.7915C133.599 25.7915 131.146 24.9739 129.264 23.3389C127.381 21.7038 126.44 19.4368 126.44 16.5377C126.44 13.6386 127.376 11.3715 129.246 9.73646C131.117 8.10135 133.553 7.28381 136.555 7.28381C139.534 7.28381 141.959 8.10135 143.83 9.73646C145.7 11.3715 146.636 13.6386 146.636 16.5377ZM140.002 12.363C139.182 11.6324 138.033 11.2672 136.555 11.2672C135.077 11.2672 133.934 11.6382 133.126 12.3804C132.295 13.1341 131.879 13.9285 131.879 14.7634H141.197C141.197 13.9053 140.799 13.1051 140.002 12.363Z" fill="#353535"/>
<path d="M122.37 7.28381L124.137 7.45776V13.111C123.375 12.7515 122.347 12.5775 121.054 12.5891C119.403 12.5891 118.132 13.053 117.243 13.9807C116.354 14.9316 115.91 16.126 115.91 17.5639V25.4436H110.8V7.6317H115.91V10.9019H116.204C116.389 10.4844 116.649 10.0669 116.984 9.64944C117.318 9.22036 117.694 8.84933 118.109 8.53618C118.583 8.18831 119.201 7.89262 119.963 7.6491C120.725 7.40558 121.527 7.28381 122.37 7.28381Z" fill="#353535"/>
<path d="M95.7318 18.712V11.7716H93.1338V8.8146L98.07 4.06592H100.841V7.63177H106.366V11.7716H100.841V18.0337C100.841 19.3672 101.141 20.2833 101.742 20.7819C102.342 21.2806 103.197 21.5299 104.305 21.5299C104.744 21.5299 105.177 21.4777 105.604 21.3734C106.043 21.269 106.366 21.153 106.574 21.0255L106.903 20.8863V25.1654C106.026 25.5944 104.911 25.8032 103.56 25.7915C100.939 25.7915 98.9764 25.2175 97.6717 24.0695C96.3784 22.9215 95.7318 21.1356 95.7318 18.712Z" fill="#353535"/>
<path d="M201.056 40.5433H202.614L210.149 56.1113H210.252L217.666 40.5433H219.259L210.149 59.6424C209.237 61.5441 208.399 62.9299 207.638 63.7996C206.864 64.681 205.853 65.1216 204.606 65.1216C203.867 65.1216 203.313 65.0288 202.943 64.8433L202.77 64.7737V63.3474C203.301 63.5793 203.902 63.6953 204.571 63.6953C205.391 63.6953 206.09 63.3706 206.667 62.7212C207.222 62.095 207.833 61.0687 208.503 59.6424L209.352 57.816L201.056 40.5433Z" fill="#353535"/>
<path d="M185.311 43.744C183.926 45.1703 183.233 46.9503 183.233 49.0841C183.233 51.2294 183.926 53.0152 185.311 54.4415C186.697 55.8679 188.522 56.581 190.785 56.581C191.777 56.581 192.713 56.4303 193.59 56.1288C194.48 55.8273 195.196 55.4446 195.738 54.9807C196.281 54.5053 196.72 54.0473 197.054 53.6066C197.678 52.7949 197.99 52.1223 197.99 51.5889H199.479C199.479 52.0875 199.294 52.6847 198.925 53.3805C198.556 54.0647 198.048 54.7604 197.401 55.4678C196.708 56.1984 195.79 56.7956 194.647 57.2594C193.469 57.7465 192.182 57.99 190.785 57.99C188.152 57.99 185.981 57.1608 184.272 55.5026C182.563 53.8559 181.709 51.7164 181.709 49.0841C181.709 46.4749 182.563 44.3353 184.272 42.6655C185.981 41.0073 188.152 40.1781 190.785 40.1781C192.182 40.1781 193.469 40.4217 194.647 40.9087C195.813 41.3957 196.731 41.9929 197.401 42.7003C198.048 43.4077 198.556 44.1092 198.925 44.805C199.294 45.5008 199.479 46.098 199.479 46.5967H197.99C198.048 46.3416 197.868 45.8603 197.453 45.1529C197.037 44.4455 196.466 43.7903 195.738 43.1874C195.196 42.7235 194.485 42.3467 193.608 42.0567C192.73 41.7552 191.789 41.6044 190.785 41.6044C188.51 41.6044 186.686 42.3176 185.311 43.744Z" fill="#353535"/>
<path d="M176.392 57.6421H174.867V48.4579C174.867 46.1038 174.261 44.3701 173.049 43.257C171.813 42.1552 170.231 41.6044 168.303 41.6044C166.213 41.6044 164.602 42.2596 163.471 43.57C162.339 44.8804 161.773 46.5445 161.773 48.5623V57.6421H160.249V40.5434H161.773V43.57H161.894C162.056 43.2222 162.339 42.8279 162.743 42.3872C163.124 41.9814 163.528 41.645 163.956 41.3783C164.464 41.0421 165.133 40.7579 165.965 40.526C166.808 40.2941 167.697 40.1781 168.632 40.1781C170.918 40.1781 172.783 40.8449 174.226 42.1785C175.67 43.5236 176.392 45.5298 176.392 48.197V57.6421Z" fill="#353535"/>
<path d="M154.776 49.0841L154.707 50.1625H138.097C138.108 50.3248 138.143 50.551 138.201 50.8409C138.259 51.1424 138.449 51.6584 138.772 52.389C139.096 53.1311 139.511 53.7805 140.019 54.3372C140.504 54.8938 141.266 55.4098 142.306 55.8853C143.31 56.3491 144.5 56.581 145.874 56.581C146.786 56.581 147.64 56.4767 148.437 56.268C149.234 56.0592 149.863 55.7983 150.325 55.4852C151.272 54.8358 151.866 54.285 152.109 53.8328L152.247 53.5023H153.997C153.928 53.6762 153.852 53.8328 153.772 53.9719C153.621 54.227 153.35 54.5923 152.958 55.0678C152.53 55.5896 152.045 56.0477 151.503 56.4419C150.983 56.8246 150.209 57.1783 149.182 57.503C148.2 57.8277 147.098 57.99 145.874 57.99C143.102 57.99 140.857 57.1608 139.136 55.5026C137.404 53.8443 136.538 51.7048 136.538 49.0841C136.538 46.4749 137.398 44.3353 139.119 42.6655C140.839 41.0073 143.022 40.1781 145.666 40.1781C148.31 40.1781 150.492 41.0073 152.213 42.6655C153.922 44.3353 154.776 46.4749 154.776 49.0841ZM145.648 41.6044C143.397 41.6044 141.572 42.3002 140.175 43.6918C138.767 45.0833 138.062 46.7648 138.062 48.7362H153.252C153.252 46.8112 152.542 45.1413 151.122 43.7266C149.69 42.3119 147.865 41.6044 145.648 41.6044Z" fill="#353535"/>
<path d="M115.303 59.8512C115.303 59.1554 115.448 58.506 115.736 57.9031C116.036 57.3116 116.412 56.8478 116.862 56.5115C117.751 55.8621 118.548 55.4562 119.252 55.2939L119.703 55.1895V55.1199C119.587 55.1199 119.339 55.0388 118.958 54.8764C118.704 54.7721 118.484 54.6445 118.3 54.4937C117.792 54.1227 117.538 53.6066 117.538 52.9456C117.538 52.3774 117.745 51.902 118.161 51.5193C118.588 51.125 118.998 50.8873 119.391 50.8061L120.032 50.6322V50.5452C119.743 50.464 119.356 50.2669 118.871 49.9538C118.49 49.7219 118.149 49.4378 117.849 49.1015C117.526 48.7651 117.249 48.2955 117.018 47.6925C116.799 47.0779 116.689 46.4285 116.689 45.7443C116.689 43.9585 117.347 42.5843 118.663 41.6219C119.968 40.6593 121.735 40.1781 123.963 40.1781H133.178V41.5349H128.899V41.6392C129.084 41.7088 129.356 41.8886 129.714 42.1785C129.944 42.3872 130.181 42.6366 130.424 42.9265C130.966 43.6802 131.238 44.6195 131.238 45.7443C131.238 47.5301 130.574 48.8985 129.246 49.8494C127.906 50.8119 126.146 51.2932 123.963 51.2932C120.695 51.2932 119.062 51.844 119.062 52.9456C119.062 54.0589 120.695 54.6155 123.963 54.6155C126.55 54.6155 128.645 55.062 130.25 55.9548C131.832 56.8478 132.623 58.1465 132.623 59.8512C132.623 61.6023 131.838 62.9185 130.268 63.7997C128.697 64.681 126.596 65.1217 123.963 65.1217C121.342 65.1217 119.246 64.681 117.676 63.7997C116.094 62.9068 115.303 61.5906 115.303 59.8512ZM131.099 59.8512C131.099 58.5872 130.452 57.6363 129.159 56.9985C127.878 56.3607 126.146 56.0418 123.963 56.0418C121.689 56.0418 119.928 56.3665 118.681 57.0159C117.445 57.6537 116.827 58.5988 116.827 59.8512C116.827 61.1384 117.468 62.1009 118.75 62.7387C120.009 63.3764 121.746 63.6954 123.963 63.6954C126.146 63.6954 127.878 63.3764 129.159 62.7387C130.452 62.1009 131.099 61.1384 131.099 59.8512ZM119.737 42.6481C118.721 43.3555 118.213 44.3876 118.213 45.7443C118.213 47.1011 118.715 48.1274 119.72 48.8232C120.713 49.5305 122.127 49.8842 123.963 49.8842C125.765 49.8842 127.173 49.5305 128.189 48.8232C129.205 48.1042 129.714 47.0779 129.714 45.7443C129.714 44.4107 129.205 43.3902 128.189 42.6829C127.173 41.9639 125.765 41.6044 123.963 41.6044C122.162 41.6044 120.753 41.9524 119.737 42.6481Z" fill="#353535"/>
<path d="M112.394 57.8508C111.886 57.8508 111.435 57.7812 111.043 57.6421C110.662 57.4913 110.362 57.3 110.142 57.0681C109.923 56.8361 109.761 56.6333 109.657 56.4593C109.553 56.2853 109.472 56.1114 109.415 55.9375L109.38 55.6765H109.311C108.93 55.9896 108.658 56.2042 108.497 56.3201C108.116 56.5869 107.336 56.929 106.159 57.3464C104.958 57.7755 103.705 57.99 102.4 57.99C100.079 57.99 98.1624 57.5609 96.6498 56.7028C95.1372 55.8447 94.3809 54.5749 94.3809 52.8935C94.3809 51.212 95.1372 49.9364 96.6498 49.0667C98.1624 48.2085 100.056 47.7795 102.331 47.7795C103.589 47.7795 104.802 47.9302 105.968 48.2318C107.1 48.5448 107.919 48.858 108.427 49.171L109.172 49.6233V46.4575C109.172 44.8224 108.595 43.6048 107.44 42.8046C106.286 42.0045 104.819 41.6044 103.041 41.6044C102.082 41.6044 101.205 41.7204 100.408 41.9524C99.6115 42.1727 98.9938 42.451 98.555 42.7873C98.1278 43.112 97.7871 43.4598 97.5331 43.8309C97.1059 44.4339 96.8923 44.9674 96.8923 45.4312H95.3681C95.3335 44.9442 95.5124 44.3353 95.905 43.6048C96.3092 42.8627 96.898 42.2075 97.6717 41.6392C98.249 41.2101 99.0111 40.8623 99.9579 40.5956C100.905 40.3173 101.932 40.1781 103.041 40.1781C105.165 40.1781 106.973 40.6999 108.462 41.7436C109.952 42.7989 110.696 44.3701 110.696 46.4575V54.3372C110.696 55.1257 110.835 55.6824 111.112 56.0071C111.401 56.3317 111.891 56.4941 112.584 56.4941C112.965 56.4941 113.306 56.4245 113.606 56.2853L113.71 56.2157V57.5726C113.41 57.7581 112.971 57.8508 112.394 57.8508ZM102.573 56.581C103.82 56.581 105.004 56.3607 106.124 55.9201C107.232 55.491 108.006 55.0967 108.445 54.7373C108.884 54.3894 109.126 54.1575 109.172 54.0415V51.2236C109.138 51.1424 109.028 51.0381 108.843 50.9104C108.67 50.7713 108.341 50.5916 107.856 50.3712C107.382 50.1393 106.811 49.919 106.141 49.7102C105.033 49.374 103.843 49.2058 102.573 49.2058C100.657 49.2058 99.0746 49.5074 97.8276 50.1103C96.5459 50.7249 95.905 51.6527 95.905 52.8935C95.905 54.1575 96.5401 55.0851 97.8102 55.6765C99.0573 56.2795 100.645 56.581 102.573 56.581Z" fill="#353535"/>
</g>
<defs>
<clipPath id="clip0_501_1405">
<rect width="73" height="66" fill="white" transform="translate(0.133789 0.5)"/>
</clipPath>
<clipPath id="clip1_501_1405">
<rect width="233" height="65" fill="white" transform="translate(93.1338 0.5)"/>
</clipPath>
</defs>
</svg>
