<svg width="503" height="67" viewBox="0 0 503 67" fill="none" xmlns="http://www.w3.org/2000/svg">
<rect width="502.134" height="67" fill="black"/>
<path d="M20 20.7047C20 20.8159 20.0751 20.8901 20.2629 20.8901C20.4507 20.8901 20.8263 20.9272 21.2394 21.261L35.1359 38.3583L35.2486 38.4325V45.9612H51.8868V38.4696L52.037 38.3583L65.4076 21.9286C65.4076 21.8915 65.4452 21.8915 65.4452 21.8544L65.4828 21.8173L65.7081 21.5206C66.1964 21.0014 66.6846 20.8901 66.91 20.8901C67.0978 20.8901 67.1729 20.8159 67.1729 20.7047V20H49.483C49.483 20.4821 49.7084 20.7788 50.084 20.7788C50.3093 20.7788 50.6849 21.0014 50.3844 21.4835L43.5864 29.2348L36.9387 21.6319L36.9011 21.5948C36.4504 21.0014 36.826 20.7788 37.0889 20.7788C37.4645 20.7788 37.6898 20.4821 37.6898 20H20V20.7047Z" fill="white"/>
<path d="M71.1729 45.7758C71.1729 45.887 71.2855 45.9612 71.3606 45.9612H108.806V37.8762C108.806 37.802 108.693 37.6907 108.618 37.6907H108.092C108.017 37.6907 107.98 37.7278 107.942 37.7649C107.829 37.9503 107.529 38.1729 107.191 38.2841H88.4495V35.2429H101.858V30.7183H88.4495V27.6771H107.191C107.529 27.7884 107.829 28.0109 107.942 28.1963C107.98 28.2334 108.017 28.2705 108.092 28.2705H108.618C108.693 28.2705 108.806 28.1592 108.806 28.0851V20H71.3606C71.2855 20 71.1729 20.0742 71.1729 20.1854V20.7047C71.1729 20.7418 71.2105 20.8159 71.248 20.853C71.4734 21.0014 71.8114 21.4093 71.8114 21.8544V44.1068C71.8114 44.5519 71.4734 44.9599 71.248 45.1082C71.2105 45.1453 71.1729 45.2195 71.1729 45.2566V45.7758Z" fill="white"/>
<path d="M112.806 45.7758C112.806 45.887 112.881 45.9612 112.994 45.9612H150.477V37.9503C150.477 37.7278 150.252 37.5053 150.026 37.5053H149.876C149.763 37.5053 149.613 37.5795 149.538 37.6907C149.388 37.8762 149.087 38.1729 148.787 38.2841H130.233V21.6319C130.346 21.2981 130.759 20.9643 130.909 20.853C130.984 20.8159 130.984 20.7418 130.984 20.7047V20.1854C130.984 20.0742 130.909 20 130.796 20H112.994C112.881 20 112.806 20.0742 112.806 20.1854V20.7047C112.806 20.7418 112.844 20.8159 112.881 20.853C113.069 21.0014 113.595 21.4093 113.595 21.8544V44.1068C113.595 44.5519 113.069 44.9599 112.881 45.1082C112.844 45.1453 112.806 45.2195 112.806 45.2566V45.7758Z" fill="white"/>
<path d="M154.477 45.7758C154.477 45.887 154.552 45.9612 154.665 45.9612H192.148V37.9503C192.148 37.7278 191.923 37.5053 191.697 37.5053H191.547C191.434 37.5053 191.284 37.5795 191.209 37.6907C191.059 37.8762 190.758 38.1729 190.458 38.2841H171.904V21.6319C172.017 21.2981 172.43 20.9643 172.58 20.853C172.655 20.8159 172.655 20.7418 172.655 20.7047V20.1854C172.655 20.0742 172.58 20 172.468 20H154.665C154.552 20 154.477 20.0742 154.477 20.1854V20.7047C154.477 20.7418 154.515 20.8159 154.552 20.853C154.74 21.0014 155.266 21.4093 155.266 21.8544V44.1068C155.266 44.5519 154.74 44.9599 154.552 45.1082C154.515 45.1453 154.477 45.2195 154.477 45.2566V45.7758Z" fill="white"/>
<path d="M219.472 20.0002C207.19 19.9631 196.186 25.9713 196.148 33.4258C196.11 40.8062 207.077 46.9627 219.359 46.9998C231.603 47.0369 242.682 41.0658 242.682 33.6483C242.72 26.1938 231.715 20.0373 219.472 20.0002ZM219.396 38.9519C215.04 38.9148 210.382 36.4299 210.382 33.4629C210.382 30.4588 215.077 28.0111 219.434 28.0482C223.791 28.0482 228.373 30.533 228.373 33.5371C228.373 36.5041 223.753 38.9519 219.396 38.9519Z" fill="white"/>
<path d="M246.682 20.7047C246.682 20.8159 246.72 20.8901 246.945 20.8901C247.17 20.8901 247.997 21.0385 248.41 21.8544L248.447 21.8915L259.227 45.9612H275.677L282.062 32.6097L288.447 45.9612H304.559L315.488 21.6319C315.939 21.0014 316.653 20.8901 316.878 20.8901C317.066 20.8901 317.141 20.8159 317.141 20.7047V20H298.587V20.5563C298.587 20.7047 298.625 20.7788 298.775 20.7788C299 20.7788 299.263 21.1497 299.038 21.6689L294.456 32.2018L288.109 20H276.015L269.555 32.3872L264.71 21.4835C264.597 21.0385 264.86 20.7788 265.01 20.7788C265.198 20.7788 265.236 20.7047 265.236 20.5563V20H246.682V20.7047Z" fill="white"/>
<path d="M321.141 20.7047C321.141 20.8159 321.216 20.8901 321.404 20.8901C321.592 20.8901 321.967 20.9272 322.38 21.261L336.277 38.3583L336.39 38.4325V45.9612H353.028V38.4696L353.178 38.3583L366.549 21.9286C366.549 21.8915 366.586 21.8915 366.586 21.8544L366.624 21.8173L366.849 21.5206C367.337 21.0014 367.826 20.8901 368.051 20.8901C368.239 20.8901 368.314 20.8159 368.314 20.7047V20H350.624C350.624 20.4821 350.849 20.7788 351.225 20.7788C351.45 20.7788 351.826 21.0014 351.525 21.4835L344.728 29.2348L338.08 21.6319L338.042 21.5948C337.591 21.0014 337.967 20.7788 338.23 20.7788C338.606 20.7788 338.831 20.4821 338.831 20H321.141V20.7047Z" fill="white"/>
<path d="M372.314 45.7758C372.314 45.887 372.426 45.9612 372.501 45.9612H409.947V37.8762C409.947 37.802 409.834 37.6907 409.759 37.6907H409.233C409.158 37.6907 409.121 37.7278 409.083 37.7649C408.97 37.9503 408.67 38.1729 408.332 38.2841H389.59V35.2429H402.999V30.7183H389.59V27.6771H408.332C408.67 27.7884 408.97 28.0109 409.083 28.1963C409.121 28.2334 409.158 28.2705 409.233 28.2705H409.759C409.834 28.2705 409.947 28.1592 409.947 28.0851V20H372.501C372.426 20 372.314 20.0742 372.314 20.1854V20.7047C372.314 20.7418 372.351 20.8159 372.389 20.853C372.614 21.0014 372.952 21.4093 372.952 21.8544V44.1068C372.952 44.5519 372.614 44.9599 372.389 45.1082C372.351 45.1453 372.314 45.2195 372.314 45.2566V45.7758Z" fill="white"/>
<path d="M413.947 27.3804C413.947 27.4546 414.022 27.5658 414.134 27.5658H414.66C414.698 27.5658 414.773 27.5288 414.811 27.4917C414.961 27.2691 415.374 26.7499 415.825 26.7499H428.632V44.1068C428.632 44.5519 428.106 44.9599 427.918 45.1082C427.843 45.1453 427.843 45.2195 427.843 45.2566V45.7758C427.843 45.887 427.918 45.9612 428.031 45.9612H445.871C445.984 45.9612 446.059 45.887 446.059 45.7758V45.2566C446.059 45.2195 446.021 45.1453 445.984 45.1082C445.796 44.9599 445.27 44.5519 445.27 44.1068C445.27 44.0327 445.27 43.9956 445.233 43.9585V26.7499H458.04C458.49 26.7499 458.904 27.2691 459.054 27.4917C459.091 27.5288 459.167 27.5658 459.204 27.5658H459.73C459.843 27.5658 459.918 27.4546 459.918 27.3804V20H413.947V27.3804Z" fill="white"/>
<path d="M463.918 45.7758C463.918 45.887 463.993 45.9612 464.106 45.9612H481.946C482.059 45.9612 482.134 45.887 482.134 45.7758V45.2566C482.134 45.2195 482.096 45.1453 482.059 45.1082C481.871 44.9599 481.345 44.5519 481.345 44.1068V21.8544C481.345 21.4093 481.871 21.0014 482.059 20.853C482.096 20.8159 482.134 20.7418 482.134 20.7047V20.1854C482.134 20.0742 482.059 20 481.946 20H464.106C463.993 20 463.918 20.0742 463.918 20.1854V20.7047C463.918 20.7418 463.956 20.8159 463.993 20.853C464.181 21.0014 464.707 21.4093 464.707 21.8544V44.1068C464.707 44.5519 464.181 44.9599 463.993 45.1082C463.956 45.1453 463.918 45.2195 463.918 45.2566V45.7758Z" fill="white"/>
</svg>
