<svg width="8" height="5" viewBox="0 0 8 5" fill="none" xmlns="http://www.w3.org/2000/svg">
<path d="M4 3.69906L7.38241 0.597179C7.45027 0.534954 7.54228 0.5 7.63823 0.5C7.73417 0.5 7.82619 0.534954 7.89405 0.597179C7.92764 0.627979 7.95428 0.66455 7.97246 0.704801C7.99064 0.745053 8 0.788196 8 0.831766C8 0.875336 7.99064 0.91848 7.97246 0.958731C7.95428 0.998983 7.92764 1.03555 7.89405 1.06635L4.2558 4.40284C4.18794 4.46505 4.09593 4.5 4 4.5C3.90407 4.5 3.81206 4.46505 3.7442 4.40284L0.105954 1.06635C0.0723634 1.03555 0.0457171 0.998983 0.0275372 0.958731C0.00935726 0.91848 0 0.875336 0 0.831766C0 0.788196 0.00935726 0.745053 0.0275372 0.704801C0.0457171 0.66455 0.0723634 0.627979 0.105954 0.597179C0.173812 0.534966 0.26582 0.500018 0.361754 0.500018C0.457688 0.500018 0.549696 0.534966 0.617555 0.597179L4 3.69906Z" fill="#F58AB2"/>
</svg>
