<svg width="148" height="33" viewBox="0 0 148 33" fill="none" xmlns="http://www.w3.org/2000/svg">
<path fill-rule="evenodd" clip-rule="evenodd" d="M13.4382 0C10.7132 0 7.48242 2.34248 4.8175 6.28064C2.03993 10.3592 0.382935 15.4084 0.382935 19.7932C0.382935 26.2123 4.41165 32.6857 13.439 32.6857C22.4554 32.6857 26.495 26.2123 26.495 19.7932C26.495 15.4084 24.8387 10.3592 22.0746 6.28064C19.3847 2.34248 16.1542 0 13.4382 0ZM83.9373 9.63077H93.0765V30.9353H102.869V9.63077H112.004V1.75011H83.9373V9.62977V9.63077ZM132.894 9.63077H147.255V1.75011H132.894C119.7 1.75011 112.653 7.61582 112.653 16.3417C112.653 25.0676 119.7 30.9353 132.894 30.9353H147.255V23.0549H132.894C126.787 23.0549 122.773 21.1034 122.773 16.3427C122.773 11.582 126.787 9.63077 132.894 9.63077ZM64.0213 1.75011L58.8026 19.1695L53.584 1.75011H36.2866V30.9353H46.0749V7.19689L53.1885 30.9353H64.4167L71.5341 7.18255V30.9353H81.3261V1.75011H64.0213Z" fill="#E30613"/>
</svg>
