<svg width="430" height="49" viewBox="0 0 430 49" fill="none" xmlns="http://www.w3.org/2000/svg">
<g filter="url(#filter0_d_188_251)">
<path d="M15.1081 45.5495C12.6635 46.6205 9.33885 46.1549 7.18761 44.6647C5.76975 43.6869 4.59635 42.2433 3.71629 40.7998C2.24954 38.3317 1.2717 35.6309 0.684999 32.8369C-0.0483785 29.3445 -0.0972703 25.7123 0.098297 22.1267C0.244972 19.0999 0.587215 16.1197 1.32059 13.186C1.8584 11.0905 2.54289 8.90192 3.91186 7.22553C5.32972 5.45602 6.89426 3.54681 9.0455 2.70861C9.87666 2.38265 13.9347 1.45133 14.8147 1.31163C18.2372 0.845969 21.7574 0.9391 25.1798 1.54446C27.8689 2.01012 30.5579 2.84831 32.9047 4.2453C35.3982 5.68885 37.6472 7.92403 38.8206 10.4852C39.8474 12.8135 40.4341 15.3746 40.4829 17.8892C40.4829 20.5435 39.8962 23.3374 38.5762 25.6657C37.4517 27.6681 35.6916 29.3445 33.687 30.6018C31.2913 32.185 28.3578 33.2095 25.4243 33.4423C23.7619 33.582 22.1485 33.256 20.4862 33.1629C20.4862 35.4912 20.2417 37.9127 19.5084 40.1478C19.0194 41.4982 18.335 42.8952 17.3082 44.0128C16.6726 44.6647 15.9393 45.2235 15.1081 45.5495ZM8.55658 41.2654C9.19218 41.4517 9.92556 41.4051 10.5123 41.1723C12.3701 40.4738 14.0325 36.7951 14.3258 34.9324C14.6192 33.3026 14.4725 31.6262 14.228 29.9964C14.0814 29.4376 13.1035 27.249 12.8102 26.7833C12.5168 26.3177 12.3213 25.8054 12.2724 25.2466C13.4458 26.178 17.846 27.7147 19.3617 27.8078C21.4151 27.9475 23.4686 27.4353 25.3265 26.6436C26.7443 26.0383 28.1622 25.2932 29.2378 24.1756C32.5625 20.6832 33.6381 15.5143 31.9269 11.1371C30.9979 8.71565 28.9934 6.48048 26.5488 5.31632C25.9132 4.99036 25.1798 4.80409 24.4464 4.66439C21.3662 4.01247 18.1394 3.73307 15.0103 4.05904C13.4458 4.19873 11.9301 4.43156 10.4634 4.89722C9.43664 5.22319 8.40991 5.73542 7.62764 6.48048C6.69869 7.31867 6.0631 8.48282 5.57418 9.64698C4.79191 11.4165 4.30299 13.3257 3.81408 15.2349C2.88513 18.6808 2.83624 22.3595 2.83624 25.9451C2.78735 29.4842 2.73846 33.2095 4.00964 36.5622C4.40078 37.6333 5.08526 38.7043 5.91643 39.589C6.6498 40.3341 7.52986 40.986 8.55658 41.2654ZM19.3617 17.7029C16.9171 19.4724 13.3969 18.5411 12.2235 15.8868C11.0501 13.2791 12.8591 10.1592 15.5481 8.90192C16.3793 8.52939 17.406 8.29656 18.335 8.48282C19.2639 8.62252 20.1928 9.08818 20.8773 9.74011C21.6596 10.4852 22.2463 11.5096 22.4908 12.5341C22.6863 13.2791 22.393 14.1173 22.0507 14.8158C21.3662 15.9334 20.4373 16.9113 19.3617 17.7029ZM16.3304 16.3059C17.6016 16.4456 19.1172 15.7006 19.7039 14.6296C20.3884 13.4188 19.9484 11.7425 18.4816 11.789C17.2593 11.8356 16.037 12.86 15.4503 13.8845C15.2059 14.3502 14.9125 14.9555 15.1081 15.5143C15.2548 15.9334 15.8415 16.2594 16.3304 16.3059Z" fill="#FBFBF9"/>
<path d="M73.5243 43.2678C69.2707 45.1304 64.1859 45.7823 59.4923 45.177C56.1677 44.7113 52.843 43.7334 49.9095 42.1967C47.0249 40.6601 44.4336 38.4249 42.5757 35.8637C40.4245 32.8835 39.1044 29.2979 38.86 25.7123C38.6644 22.9649 39.1533 20.1244 39.9845 17.5167C41.0601 14.1639 42.7224 10.9043 44.9714 8.11029C46.3893 6.34078 48.1494 4.71096 50.154 3.63994C53.4297 1.96356 57.2922 1.12537 61.008 1.12537C65.6527 1.12537 70.3463 2.33608 74.3065 4.66439C78.3646 6.94614 81.7381 10.7646 83.4004 15.0021C84.5249 17.9358 85.2094 21.0557 85.3561 24.1291C85.5517 28.7857 84.0849 33.3492 81.2003 37.121C79.1957 39.6822 76.5556 41.9173 73.5243 43.2678ZM59.4434 38.9371C65.2127 39.3096 70.6886 36.8882 74.0621 32.4644C75.4799 30.6018 76.5067 28.4132 76.9956 26.1314C77.8757 21.9405 77.3867 17.3304 75.7733 13.3723C74.8932 11.2768 73.6221 9.27445 71.9108 7.73776C71.4219 7.31867 68.8307 5.54915 68.1951 5.22319C65.946 4.05904 63.3059 3.40711 60.7146 3.31398C57.39 3.22084 54.0653 4.05904 51.2296 5.73542C49.5184 6.75987 47.9538 8.06373 46.7316 9.60041C45.1181 11.6493 43.798 13.9776 42.918 16.3991C41.8424 19.4259 41.4512 22.8252 41.989 25.9451C42.4291 28.4132 43.6025 30.7415 45.0203 32.8835C45.7537 33.9545 46.536 35.0721 47.5627 35.8637C48.9317 36.8882 50.594 37.4936 52.2563 37.9127C54.6031 38.518 57.0477 38.7974 59.4434 38.9371ZM58.7101 19.8915C55.6299 20.8694 52.1585 19.3327 51.7185 16.2594C51.3274 13.4188 54.1142 9.83324 56.9011 8.76222C57.9278 8.38969 59.0523 8.20343 60.1279 8.43626C61.1546 8.71565 62.1814 9.27445 62.8659 10.0661C63.8926 11.2768 64.137 13.186 63.697 14.7227C63.0614 16.9579 61.0569 19.1465 58.7101 19.8915ZM56.3632 16.9579C56.8033 17.1441 57.39 17.051 57.83 16.9113C58.9545 16.4922 59.9812 15.5609 60.5679 14.5364C60.8613 14.0708 61.1058 13.4188 60.8613 12.9532C60.6168 12.5341 60.079 12.3478 59.5901 12.3478C58.3189 12.3478 56.9988 13.0929 56.2655 14.0708C55.8743 14.6296 55.6299 15.3746 55.7765 16.0731C55.8254 16.3991 56.0699 16.8182 56.3632 16.9579Z" fill="#FBFBF9"/>
<path d="M112.877 44.7113C109.259 46.1083 105.103 46.4808 101.192 45.9686C97.8186 45.5495 94.445 44.4785 91.4626 42.8487C88.3335 41.1257 85.8401 38.2852 84.5689 35.0256C83.7866 32.9301 83.4444 30.5086 84.0311 28.3666C84.4222 27.0162 85.2533 25.7123 86.3779 24.781C87.4535 23.8962 88.8713 23.3374 90.2892 23.058C89.5069 21.2885 88.2846 19.7518 87.4046 18.0289C86.6712 16.6319 86.329 15.0487 86.329 13.4654C86.3779 11.1371 87.2579 8.76222 88.6269 6.85301C89.7514 5.36289 91.3159 4.05904 93.0272 3.17428C96.4007 1.45133 100.312 0.380305 104.174 0.473439C106.277 0.520004 108.379 0.985666 110.384 1.68416C113.171 2.61548 115.909 4.05904 117.913 6.15451C119.086 7.31867 120.064 8.76222 120.651 10.2989C121.384 12.0219 121.727 13.8845 121.727 15.7471C121.727 17.1441 121.336 18.5877 120.749 19.8915C120.309 20.916 119.624 21.987 118.598 22.6389C120.211 24.1756 121.384 26.0848 122.216 28.0872C122.851 29.6704 123.34 31.44 123.145 33.1629C122.851 35.5843 121.776 38.0523 120.113 39.8684C118.158 41.9639 115.615 43.6869 112.877 44.7113ZM95.814 39.6356C99.3342 40.7066 103.148 40.7532 106.717 39.7753C108.868 39.2165 111.019 38.1921 112.731 36.7951C113.66 36.05 114.54 35.1652 115.126 34.1408C116.055 32.511 116.593 30.3689 115.909 28.646C115.273 27.0162 114.197 25.526 112.877 24.3619C111.019 22.6855 108.624 21.7542 106.472 20.4503C105.25 19.6587 104.028 18.7274 103.197 17.5167C102.317 16.1662 101.877 14.4899 101.779 12.86C101.779 12.8135 102.317 12.9066 102.317 12.9997C103.148 14.5364 103.881 16.2594 105.201 17.4235C106.081 18.2152 107.352 18.6808 108.526 18.6808C109.553 18.6808 110.579 18.3083 111.459 17.7495C112.877 16.8647 113.953 15.4212 114.393 13.7914C115.517 9.74011 111.899 4.99036 107.841 3.31398C105.348 2.28952 102.365 2.28952 99.7253 2.80175C96.9874 3.36054 94.2983 4.61783 92.196 6.38734C91.1204 7.31867 90.1914 8.48282 89.6047 9.74011C88.578 12.0684 88.8224 15.0487 89.947 17.377C91.2182 20.0312 93.5161 22.2198 96.3029 23.384C97.3296 23.8031 98.4541 24.1291 99.3831 24.781C102.121 26.6436 104.37 29.5773 105.152 32.6972C105.201 32.7438 104.663 32.8835 104.615 32.8369C103.148 31.114 102.121 29.0651 100.508 27.4353C99.9698 26.8765 99.3342 26.3642 98.6008 25.9917C96.6451 24.9673 94.1028 24.6413 91.8537 25.107C90.387 25.4329 88.8713 26.1314 87.8446 27.2024C87.0623 28.0406 86.5734 29.2048 86.4756 30.3689C86.2801 32.6041 88.4313 36.376 90.4848 37.4936C92.1471 38.4249 94.005 39.0768 95.814 39.6356Z" fill="#FBFBF9"/>
<path d="M138.033 45.5961C135.002 46.6671 131.481 46.574 128.499 45.3632C126.886 44.7113 125.321 43.6403 124.245 42.3364C123.659 41.6379 123.316 40.8463 122.974 40.0547C121.703 37.2142 120.921 34.1874 120.334 31.1606C120.187 30.4621 120.041 29.7636 120.041 29.0185C119.796 25.1535 119.747 21.242 120.041 17.377C120.236 14.6761 120.578 11.9753 121.312 9.36758C121.801 7.59806 122.534 5.82855 123.61 4.29187C124.245 3.40711 125.077 2.61548 126.054 2.05669C130.112 -0.271622 136.957 -0.0387909 140.135 3.31398C140.575 3.73307 141.162 4.33843 141.798 4.2453C142.58 4.15217 146.002 2.10325 146.736 1.87042C149.18 1.12537 151.771 0.752835 154.314 0.9391C155.927 1.0788 157.59 1.4979 158.959 2.28952C159.79 2.80175 160.425 3.54681 160.914 4.29187C161.843 5.68885 162.577 7.2721 163.114 8.85535C163.603 10.1592 163.994 11.5096 164.092 12.86C164.532 17.9358 164.581 23.058 164.043 28.0872C163.652 31.9522 162.919 35.9103 161.11 39.3096C160.328 40.7532 159.301 42.1502 157.932 43.0815C156.758 43.9663 155.341 44.5251 153.923 44.9907C152.309 45.5495 150.549 45.922 148.838 45.8289C147.86 45.7823 146.882 45.5961 146.1 45.0373C145.611 44.7113 143.264 42.7555 142.824 42.2899C141.602 43.78 139.891 44.9441 138.033 45.5961ZM128.059 39.4028C129.379 40.0547 130.944 40.3341 132.41 40.0547C133.486 39.8219 134.415 39.3096 135.197 38.518C136.126 37.5867 136.713 36.376 137.104 35.1652C137.691 33.256 137.788 31.1606 137.691 29.1582C137.691 28.7391 136.615 27.8078 136.322 27.4353C136.322 27.3887 136.322 27.3421 136.322 27.2956C138.815 27.9009 141.504 27.575 143.998 27.0162C144.095 27.0162 143.998 27.1559 143.949 27.249C143.753 27.5284 142.775 28.6925 142.678 29.0185C141.993 31.6262 142.531 34.7462 144.095 36.9813C144.878 38.0989 146.198 39.0302 147.616 39.2631C149.131 39.5425 150.843 39.0302 152.065 38.1921C153.336 37.3539 154.412 36.1431 155.047 34.7927C155.781 33.1629 156.172 31.3468 156.367 29.5307C156.612 26.923 156.514 24.3153 156.71 21.6611C156.856 19.6121 156.758 17.5632 156.661 15.5143C156.563 13.6517 156.416 11.7425 156.123 9.87981C155.976 8.99505 155.781 8.06373 155.389 7.2721C154.852 6.06138 153.972 4.94379 152.798 4.29187C151.771 3.77964 150.5 3.59337 149.327 3.77964C147.567 4.05904 145.856 5.08349 144.633 6.34078C142.335 8.66909 141.406 11.9753 142.091 15.0952C142.238 15.7471 143.215 15.9334 143.607 16.5388C143.655 16.6785 143.704 16.9113 143.558 16.9113C140.82 16.2128 137.837 16.2594 135.05 16.7716C134.855 16.8182 135.099 16.4922 135.197 16.3059C135.686 15.7471 136.566 15.654 137.153 15.1884C137.397 14.9555 137.544 14.5364 137.544 14.1639C137.495 12.5806 137.153 10.9508 136.762 9.41414C136.322 7.92403 135.833 6.48048 134.904 5.22319C134.562 4.71096 134.073 4.2453 133.486 3.9659C132.019 3.22084 128.743 3.17428 127.374 4.05904C126.152 4.85066 125.272 6.15451 124.685 7.50493C123.61 9.83324 123.17 12.4409 122.876 14.9555C122.436 18.5411 122.436 22.1267 122.387 25.6657C122.387 29.2979 122.779 33.1163 124.636 36.2828C125.419 37.5867 126.641 38.7508 128.059 39.4028Z" fill="#FBFBF9"/>
<path d="M163.187 13.5585C163.187 13.6517 163.236 13.4188 163.236 13.3723C163.285 13.2326 163.236 13.4654 163.187 13.5585ZM170.178 46.8534C169.103 46.9931 167.881 46.8534 166.903 46.3877C166.023 46.0152 165.289 45.2701 164.8 44.4785C164.214 43.5006 163.92 42.3364 163.823 41.2654C163.578 38.6111 164.458 35.9569 166.218 33.8614C167.392 32.511 169.005 31.3934 170.765 30.9277C173.699 30.1361 176.926 31.3934 178.392 33.908C179.272 35.3981 179.761 37.2142 179.468 38.8905C179.077 40.986 177.903 43.2212 176.094 44.4319C174.334 45.6426 172.33 46.6205 170.178 46.8534ZM166.854 39.4959C167.294 40.7998 168.907 40.9395 170.227 40.4738C172.183 39.7753 174.334 37.3539 174.236 35.3515C174.09 33.3026 171.352 33.3026 169.543 34.4668C168.027 35.4446 166.365 37.8195 166.854 39.4959Z" fill="#FBFBF9"/>
<path d="M193.972 42.8952C188.839 48.1572 179.696 45.7823 178.278 38.7508C177.74 35.9569 178.425 33.0698 178.816 30.2292C179.94 21.8473 184.145 13.512 190.012 7.1324C191.43 5.64229 192.799 4.05904 194.51 2.98801C195.83 2.14982 197.395 1.73073 198.91 1.54446C201.404 1.31163 204.142 1.73073 206.391 2.80175C208.249 3.68651 209.813 5.03692 211.182 6.52704C213.334 8.80879 215.045 11.5096 216.511 14.3036C218.467 18.0289 219.983 21.987 221.058 26.0383C221.89 29.2513 222.427 32.5575 222.281 35.8637C222.232 37.3539 222.134 38.8905 221.645 40.2875C221.352 41.1723 220.814 42.057 220.129 42.709C218.907 43.78 217.147 44.3388 215.534 44.6182C212.893 45.0373 210.156 44.9441 207.613 44.3388C206.098 44.0128 204.631 43.1281 203.506 42.1036C201.257 40.0547 199.693 37.447 197.884 35.0256C197.15 37.8195 196.026 40.7532 193.972 42.8952ZM183.607 40.8929C184.194 41.1723 184.927 41.312 185.612 41.2189C186.736 41.1257 187.861 40.5204 188.741 39.8219C190.11 38.7974 191.234 37.4936 192.066 36.05C193.19 34.2339 193.875 32.1384 194.51 30.1361C194.608 29.8567 194.999 28.646 194.999 28.32C194.999 28.1803 194.755 28.0406 194.608 27.9475C194.168 27.8078 193.728 27.7612 193.239 27.7147C194.266 27.575 200.133 26.7368 201.111 26.5505C201.257 26.5505 201.453 26.7833 201.551 26.8299C200.768 27.2956 199.937 27.6681 199.106 27.9475C199.595 30.5086 199.986 33.1629 200.964 35.5843C201.599 37.2142 202.626 38.844 204.142 39.8684C205.217 40.6135 206.538 41.2189 207.858 41.1257C209.178 40.986 210.498 40.241 211.427 39.3096C212.405 38.2852 213.138 36.9348 213.431 35.5378C213.774 34.0477 213.774 32.4178 213.725 30.8812C213.578 28.4597 213.187 26.0383 212.502 23.71C211.818 21.3351 207.711 11.2768 206.342 9.22788C205.169 7.45836 203.506 5.87512 201.551 4.89722C200.426 4.33843 199.057 3.9659 197.835 4.2453C195.977 4.66439 194.412 5.92168 193.092 7.22553C188.35 12.0684 184.732 18.1686 182.776 24.5482C181.847 27.5284 181.212 30.6018 181.016 33.7217C180.967 35.0721 180.918 36.5157 181.212 37.8661C181.358 38.518 181.603 39.2165 182.092 39.7753C182.532 40.1944 183.021 40.6135 183.607 40.8929ZM201.502 13.3257C203.604 16.8647 200.915 21.2885 196.661 21.2885C192.848 21.2885 191.283 16.9579 193.141 13.6982C194.363 11.6028 196.955 10.0195 199.204 11.0905C200.182 11.5562 201.013 12.3944 201.502 13.3257ZM195.586 17.7495C195.781 18.448 196.368 18.8671 197.053 18.8671C198.47 18.8671 199.888 17.6564 200.035 16.3059C200.133 15.7937 199.937 15.1418 199.497 14.7693C199.106 14.4899 198.568 14.3967 198.079 14.4433C196.417 14.4899 195.097 16.2128 195.586 17.7495Z" fill="#FBFBF9"/>
<path d="M249.735 45.8755C245.873 46.6205 241.815 46.8999 237.952 46.3411C235.068 45.922 232.232 44.851 229.836 43.2678C226.561 41.1257 223.872 37.9592 222.356 34.4668C220.351 30.0895 219.471 24.9673 220.254 20.2641C220.889 16.4456 222.698 12.7669 225.289 9.78667C228.663 5.92168 233.308 3.12771 238.49 1.91699C241.473 1.2185 244.651 1.12537 247.731 1.4979C250.224 1.82386 252.767 2.42922 255.016 3.50024C256.482 4.15217 258.047 5.13006 258.78 6.48048C259.514 7.87746 259.905 9.50728 259.807 11.0905C259.709 12.3478 259.318 13.6051 258.634 14.6761C257.9 15.8868 256.727 16.9113 255.407 17.6098C253.793 18.4946 251.936 18.9602 250.078 19.0999C247.926 19.2396 245.628 19.1465 243.575 19.7984C242.597 20.1244 241.717 20.7297 241.033 21.4748C239.664 23.1046 238.979 25.2932 238.881 27.3421C238.833 27.9009 238.784 28.646 239.321 28.646C240.593 28.646 243.379 28.6925 244.064 27.6681C244.846 26.5039 244.553 24.9207 245.237 23.71C245.677 23.0115 246.362 22.4061 247.046 21.8939C248.415 20.916 250.127 20.2175 251.789 20.1244C252.473 20.0778 253.158 20.1709 253.793 20.3572C256.091 21.0557 258.389 22.0801 260.149 23.71C262.105 25.526 263.327 27.9941 264.159 30.4621C264.55 31.6728 264.599 33.0232 264.403 34.2339C263.914 37.3073 261.958 40.3807 259.318 42.1967C256.482 44.0594 253.109 45.177 249.735 45.8755ZM232.281 39.4028C235.557 40.6601 239.224 41.0326 242.793 40.7998C245.726 40.6135 248.709 40.1478 251.398 39.0302C253.109 38.2852 254.869 37.2142 255.896 35.6775C257.558 33.2095 257.949 29.8567 257.314 26.9696C257.02 25.4795 256.482 23.8962 255.309 22.8718C253.207 21.0557 249.687 21.8008 247.682 23.71C246.655 24.7344 245.922 26.2245 245.971 27.6215C246.02 28.9254 246.557 30.1361 246.997 31.3934C247.144 31.9056 246.411 31.3003 245.922 31.0209C245.531 30.788 245.286 30.4155 244.895 30.1361C244.7 29.9498 244.406 29.8101 244.113 29.8567C241.864 30.0895 239.419 30.3224 237.268 29.5773C235.997 29.2048 234.872 28.2735 234.237 27.1559C233.406 25.5726 233.308 23.5237 233.65 21.7542C233.992 20.0312 234.726 18.3083 235.899 17.0044C236.535 16.3059 237.317 15.7006 238.197 15.3281C238.784 15.0952 239.468 15.0021 240.104 14.909C242.744 14.6296 245.384 14.8158 248.024 14.9555C249.442 15.0021 250.958 14.583 252.082 13.7914C253.158 13.0929 253.989 11.9287 254.282 10.718C254.576 9.55384 254.331 8.29656 253.696 7.2721C252.962 6.06138 251.74 5.13006 250.42 4.57126C248.122 3.59337 245.433 3.45368 242.891 3.63994C239.419 3.91934 235.752 4.75753 232.77 6.52704C230.179 8.11029 227.881 10.3455 226.17 12.8135C224.996 14.4433 224.067 16.3059 223.578 18.2617C222.698 21.9405 222.6 25.8986 223.529 29.5773C224.116 31.7659 225.094 33.9545 226.658 35.6775C228.125 37.3539 230.13 38.6111 232.281 39.4028Z" fill="#FBFBF9"/>
<path d="M285.354 45.9686C281.883 46.2014 278.216 45.8289 275.038 44.6182C271.664 43.3143 268.633 40.9395 266.579 38.0989C264.428 35.1652 263.059 31.7193 262.375 28.2269C261.104 21.987 261.886 15.1418 264.477 9.27445C265.113 7.87746 266.188 6.57361 267.411 5.54915C269.415 3.9659 272.006 2.94145 274.5 2.24295C279.047 0.9391 283.936 0.380305 288.63 0.985666C291.465 1.40476 294.448 2.24295 296.648 4.05904C297.528 4.80409 298.31 5.78198 298.75 6.85301C299.19 7.92403 299.337 9.18131 299.239 10.3455C299.19 11.2302 297.821 14.257 298.212 15.0487C299.386 17.3304 299.826 20.0312 299.581 22.5458C299.435 24.2688 298.946 26.0383 298.115 27.575C297.919 27.9009 297.626 28.1338 297.43 28.4132C298.604 30.0895 299.092 32.185 299.092 34.1874C299.141 36.2828 298.799 38.4714 297.675 40.241C296.746 41.6379 295.377 42.8487 293.861 43.6869C291.319 45.1304 288.287 45.7823 285.354 45.9686ZM271.909 37.6798C274.989 39.2631 278.802 39.3562 282.274 39.1234C285.012 38.9371 287.994 38.5646 290.145 36.9813C291.123 36.2828 291.954 35.2584 292.101 34.1408C292.297 32.8835 291.563 31.5331 290.683 30.6018C289.167 29.1116 287.016 28.1338 284.865 27.7147C281.1 27.0627 277.14 27.3887 273.278 27.7612C273.131 27.6215 273.131 26.923 273.033 26.7368C273.229 26.5505 273.326 26.3177 273.375 26.0848C273.424 25.9917 273.522 25.7123 273.669 25.7123C274.842 25.852 281.394 25.9917 282.567 25.9917C284.278 25.9451 285.989 25.6657 287.603 25.0604C289.754 24.3153 291.856 22.9649 293.274 21.1954C294.203 19.9847 294.594 18.0755 293.91 16.725C293.274 15.3746 291.808 14.3036 290.292 13.9776C288.874 13.6517 287.407 13.6982 285.941 13.8845C283.056 14.257 280.22 15.1884 277.482 16.1662C276.993 15.6074 276.7 14.909 276.651 14.1639C276.602 13.8845 276.651 13.512 276.847 13.3257C276.993 13.186 277.287 13.1394 277.482 13.1394C278.216 13.186 278.9 13.1394 279.585 13.1394C281.638 12.9997 283.692 12.8135 285.745 12.5341C286.967 12.3478 288.141 12.2081 289.314 11.8822C293.079 10.9043 295.67 6.75987 292.59 4.47813C291.563 3.73307 290.194 3.36054 288.923 3.17428C285.892 2.70861 282.665 3.03458 279.682 3.73307C277.042 4.385 274.402 5.31632 272.006 6.62017C270.295 7.50493 268.633 8.66909 267.557 10.2058C266.482 11.789 265.993 13.7448 265.748 15.6074C265.308 19.0068 265.113 22.5458 265.65 25.9451C266.09 28.8322 266.922 31.7193 268.437 34.2339C269.268 35.5843 270.442 36.9348 271.909 37.6798Z" fill="#FBFBF9"/>
<path d="M332.532 46.7137C329.892 46.8999 327.007 45.922 325.052 44.2922C322.754 42.383 321.434 39.6356 319.82 37.1676C319.38 39.6356 318.207 42.1036 316.447 43.9663C315.469 45.0373 314.149 46.0152 312.731 46.4343C311.607 46.7602 310.384 46.7137 309.26 46.4343C307.451 46.0152 305.788 44.8976 304.468 43.6869C302.268 41.6845 300.557 39.0302 299.775 36.2363C299.188 34.0477 298.992 31.7659 298.846 29.5307C298.601 25.0138 298.748 20.4503 299.481 15.98C299.872 13.3723 300.41 10.718 301.73 8.38969C302.317 7.45836 303.099 6.62017 303.93 5.82855C304.908 4.85066 305.984 3.91934 307.206 3.12771C308.477 2.33608 310.14 2.05669 311.655 2.05669C314.931 2.05669 318.305 3.26741 321.043 4.99036C322.02 5.64229 323.292 5.22319 323.927 4.2453C325.198 2.52235 327.35 1.12537 329.55 0.752835C332.239 0.380305 335.172 1.2185 337.421 2.66205C339.524 4.01247 341.235 5.96825 342.262 8.15686C343.386 10.5317 344.071 13.1394 344.413 15.7006C344.951 19.845 344.706 24.0359 344.364 28.1803C344.022 32.4178 343.68 36.7951 341.871 40.7066C341.137 42.4296 340.013 44.106 338.399 45.2235C337.47 45.922 333.657 46.6205 332.532 46.7137ZM326.47 40.8929C328.523 42.057 332.19 41.5448 333.901 39.9616C334.635 39.2631 335.172 38.3317 335.563 37.4004C336.688 34.8859 337.226 32.1384 337.715 29.4842C338.35 25.7123 338.741 21.8939 338.741 18.0755C338.79 14.6296 338.399 11.044 337.128 7.8309C335.661 4.29187 331.603 1.96356 328.181 3.9659C326.763 4.80409 325.736 6.24765 325.101 7.6912C324.025 10.0661 323.732 12.7669 323.781 15.3281C323.781 19.6121 324.514 23.8962 325.932 27.9009C326.127 28.4597 325.198 27.5284 324.954 27.0162C323.683 24.4085 323.047 21.5214 322.705 18.6343C322.46 16.8647 318.989 10.2058 318.109 8.57596C316.593 5.87512 312.682 3.40711 309.602 4.19873C308.526 4.47813 307.548 5.08349 306.717 5.78198C305.202 6.9927 304.126 8.66909 303.295 10.392C301.437 14.4899 300.948 19.193 301.046 23.6634C301.144 27.3421 301.486 31.0674 302.61 34.6065C303.148 36.2363 303.833 37.8661 305.006 39.2165C305.837 40.1478 307.108 40.986 308.428 41.0326C309.7 41.0792 311.02 40.6135 311.998 39.8684C313.073 39.0302 313.807 37.8195 314.296 36.6088C315.518 33.5354 315.762 29.9498 315.029 26.7368C314.833 25.7123 314.54 24.6879 314.149 23.7565C314.002 23.4771 313.464 22.313 313.464 22.0336C313.464 21.8939 313.611 21.7076 313.758 21.6145C315.811 24.0359 316.642 27.249 318.158 29.9964C319.478 32.3713 321.043 34.653 322.656 36.8416C323.487 37.9592 324.367 39.0302 325.345 40.0081C325.687 40.3341 326.078 40.6601 326.47 40.8929Z" fill="#FBFBF9"/>
<path d="M366.653 45.8289C362.106 46.248 357.265 45.0373 353.305 42.8952C351.741 42.057 350.372 40.8929 349.198 39.589C347.389 37.5401 346.02 35.0721 345.042 32.511C343.478 28.4132 343.087 23.7565 344.016 19.4724C345.091 14.5364 347.829 10.0661 351.741 6.75987C354.625 4.385 358.194 2.61548 361.91 1.87042C366.31 0.985666 371.2 1.40476 375.306 3.12771C377.849 4.2453 380.098 6.01482 381.858 8.06373C383.031 9.50728 383.96 11.3234 384.156 13.1394C384.254 13.8845 384.107 14.7227 383.814 15.4212C383.276 16.8182 382.249 18.0755 380.929 18.8205C378.924 19.9381 376.431 20.2641 374.133 20.2175C373.057 20.2175 371.982 20.0312 370.906 19.845C370.075 19.6587 369.146 19.7053 368.266 19.9381C366.653 20.3106 365.137 21.2885 363.964 22.4527C363.23 23.1046 362.741 23.9894 362.399 24.8741C361.959 25.8986 361.617 27.0627 361.715 28.1338C364.844 27.3887 367.582 25.5726 370.368 24.0359C372.031 23.1512 373.791 22.2198 375.698 21.9405C377.311 21.7076 379.12 21.9405 380.587 22.7321C382.445 23.6634 383.862 25.4329 384.645 27.2956C385.965 30.6018 385.525 34.3736 383.422 37.4004C382.982 38.0524 382.396 38.6577 381.858 39.2165C380.44 40.6135 378.924 42.0105 377.115 42.9418C373.937 44.5716 370.271 45.4564 366.653 45.8289ZM361.519 39.7287C365.332 40.1478 369.391 39.3562 372.813 37.7264C374.866 36.7485 376.724 35.2584 377.995 33.4423C378.876 32.185 379.511 30.6949 379.56 29.1582C379.56 28.5063 379.462 27.8544 379.218 27.2024C378.973 26.4574 378.582 25.6192 377.898 25.1535C377.262 24.6879 376.333 24.6413 375.6 24.7344C374.035 24.9673 372.568 25.6657 371.151 26.3177C369.391 27.1559 367.679 28.0872 365.87 28.9254C364.55 29.5307 363.132 30.1361 361.666 30.2292C360.737 30.2758 358.683 29.6704 358.048 29.0651C356.972 27.9475 356.385 26.3642 356.239 24.8276C355.945 21.8008 357.412 18.5411 359.563 16.3525C361.03 14.909 363.132 13.9311 365.186 13.4188C366.115 13.186 367.142 13.2791 368.07 13.512C369.635 13.8845 371.102 14.6296 372.715 14.9555C373.742 15.1884 375.013 15.1884 375.893 14.6296C377.8 13.4188 378.338 10.5783 377.311 8.62252C376.578 7.2721 375.258 6.29421 373.889 5.54915C371.835 4.47813 369.342 4.01247 366.995 4.05904C364.404 4.1056 361.763 4.75753 359.368 5.78198C356.434 7.03927 353.647 8.94848 351.594 11.3699C349.932 13.2791 348.807 15.6074 348.025 17.9823C346.998 21.4282 346.705 25.2001 347.585 28.6925C347.976 30.3689 348.709 31.9987 349.785 33.3957C350.616 34.5599 351.692 35.5378 352.865 36.376C355.359 38.1455 358.439 39.4028 361.519 39.7287Z" fill="#FBFBF9"/>
<path d="M409.954 45.9686C408.292 46.7137 406.287 47.2259 404.478 46.8999C403.452 46.7137 402.425 46.2014 401.545 45.5961C400.029 44.5716 398.758 43.2678 397.682 41.8242C396.802 40.6601 396.02 39.3096 395.678 37.9127C394.651 34.0477 394.945 29.9964 395.189 25.9917C391.815 22.6855 387.953 19.7984 385.166 16.0265C384.188 14.7227 383.162 13.3257 382.722 11.7425C382.184 10.0661 382.282 8.24999 382.917 6.62017C383.602 4.85066 384.971 3.22084 386.584 2.14982C388.735 0.659704 391.571 -0.0853566 394.211 0.00777731C395.678 0.0543429 397.194 0.426873 398.562 1.03223C401.105 2.05669 403.403 3.73307 405.31 5.68885C405.505 5.92168 405.798 6.15451 406.092 6.24765C406.483 6.34078 406.923 6.24765 407.314 6.06138C407.901 5.78198 408.39 5.40945 408.879 4.99036C410.59 3.45368 412.497 2.05669 414.599 1.12537C416.115 0.473439 417.875 0.0543429 419.537 0.240608C421.346 0.473439 423.106 1.3582 424.426 2.56892C426.578 4.61783 427.995 7.64463 427.995 10.5317C428.044 11.789 427.702 13.0929 427.066 14.2105C424.817 18.2152 421.444 21.5679 418.217 24.9207C417.728 25.3864 415.968 27.0162 415.821 27.6681C415.675 28.4132 415.724 32.4178 415.675 33.2095C415.626 35.4446 415.43 37.7264 414.746 39.915C414.257 41.4517 413.426 42.9884 412.35 44.2457C411.714 44.9907 410.834 45.5495 409.954 45.9686ZM397.34 34.5133C397.731 37.5867 399.296 41.4051 402.572 41.1723C404.185 41.0792 405.75 39.915 406.679 38.6111C407.705 37.121 408.243 35.3049 408.536 33.5354C408.928 31.0674 408.83 28.5063 408.634 25.9917C408.488 23.058 414.648 18.4946 416.897 16.4456C418.119 15.3746 419.195 14.1639 420.124 12.8135C420.955 11.6493 421.639 10.392 421.933 9.04162C422.568 6.15451 420.857 3.12771 417.777 2.84831C416.359 2.70861 414.892 3.26741 413.621 3.91934C410.394 5.73542 407.852 8.62252 405.75 11.6028C404.478 13.3257 403.305 15.1884 402.425 17.1441C402.425 17.1907 401.985 17.3304 401.936 17.2838C401.887 17.1907 401.643 17.0044 401.692 16.9113C402.034 15.7006 402.816 14.583 403.207 13.3257C403.452 12.5806 403.452 11.6493 403.061 10.9508C401.936 8.66909 399.98 6.71331 397.829 5.26976C395.971 4.05904 393.771 3.08115 391.571 3.12771C387.611 3.22084 384.579 6.62017 385.411 10.2989C385.753 11.789 386.682 13.1394 387.66 14.3502C388.98 16.0731 390.593 17.5632 392.255 19.0068C393.624 20.1244 395.042 21.242 396.607 22.0801C396.9 22.2664 397.145 22.4992 397.242 22.8252C397.585 23.5703 397.536 24.455 397.487 25.2466C397.145 28.32 396.9 31.4865 397.34 34.5133Z" fill="#FBFBF9"/>
</g>
<defs>
<filter id="filter0_d_188_251" x="0" y="0" width="429.5" height="48.5" filterUnits="userSpaceOnUse" color-interpolation-filters="sRGB">
<feFlood flood-opacity="0" result="BackgroundImageFix"/>
<feColorMatrix in="SourceAlpha" type="matrix" values="0 0 0 0 0 0 0 0 0 0 0 0 0 0 0 0 0 0 127 0" result="hardAlpha"/>
<feOffset dx="1" dy="1"/>
<feGaussianBlur stdDeviation="0.25"/>
<feComposite in2="hardAlpha" operator="out"/>
<feColorMatrix type="matrix" values="0 0 0 0 0 0 0 0 0 0 0 0 0 0 0 0 0 0 0.25 0"/>
<feBlend mode="normal" in2="BackgroundImageFix" result="effect1_dropShadow_188_251"/>
<feBlend mode="normal" in="SourceGraphic" in2="effect1_dropShadow_188_251" result="shape"/>
</filter>
</defs>
</svg>
