<svg width="245" height="29" viewBox="0 0 245 29" fill="none" xmlns="http://www.w3.org/2000/svg">
<path d="M8.64832 27.8183C7.24897 28.4724 5.34584 28.188 4.1144 27.2779C3.30278 26.6807 2.63109 25.7991 2.12732 24.9175C1.2877 23.4102 0.72796 21.7607 0.392114 20.0544C-0.0276933 17.9214 -0.0556804 15.7032 0.0562681 13.5134C0.14023 11.6648 0.33614 9.84471 0.755947 8.05304C1.06381 6.77328 1.45563 5.43664 2.23927 4.41282C3.05089 3.33214 3.94648 2.16613 5.17792 1.65422C5.6537 1.45515 7.97663 0.886364 8.4804 0.801047C10.4395 0.516656 12.4546 0.573533 14.4137 0.943243C15.953 1.22763 17.4923 1.73954 18.8356 2.59272C20.263 3.47433 21.5504 4.83941 22.2221 6.40357C22.8098 7.82553 23.1457 9.38968 23.1737 10.9254C23.1737 12.5464 22.8378 14.2528 22.0822 15.6747C21.4384 16.8976 20.4309 17.9214 19.2834 18.6893C17.9121 19.6562 16.2328 20.2819 14.5536 20.4241C13.602 20.5094 12.6785 20.3103 11.7269 20.2535C11.7269 21.6754 11.587 23.1543 11.1672 24.5193C10.8873 25.3441 10.4955 26.1973 9.90774 26.8798C9.54391 27.2779 9.1241 27.6192 8.64832 27.8183ZM4.89804 25.2019C5.26188 25.3156 5.68168 25.2872 6.01753 25.145C7.08104 24.7184 8.03261 22.4717 8.20053 21.3341C8.36845 20.3388 8.28449 19.315 8.14455 18.3196C8.06059 17.9783 7.50085 16.6417 7.33293 16.3573C7.165 16.0729 7.05305 15.7601 7.02507 15.4188C7.69676 15.9876 10.2156 16.9261 11.0832 16.983C12.2587 17.0683 13.4341 16.7554 14.4976 16.272C15.3093 15.9023 16.1209 15.4472 16.7366 14.7647C18.6397 12.6318 19.2555 9.475 18.2759 6.80172C17.7441 5.32288 16.5967 3.9578 15.1973 3.24682C14.8335 3.04774 14.4137 2.93399 13.9939 2.84867C12.2307 2.45052 10.3835 2.27989 8.59235 2.47896C7.69676 2.56428 6.82916 2.70647 5.98954 2.99086C5.40181 3.18994 4.81408 3.50277 4.36629 3.9578C3.83453 4.4697 3.4707 5.18068 3.19083 5.89166C2.74303 6.97235 2.46316 8.13836 2.18329 9.30437C1.65154 11.4089 1.62355 13.6556 1.62355 15.8454C1.59556 18.0068 1.56757 20.2819 2.29524 22.3295C2.51914 22.9836 2.91096 23.6377 3.38674 24.1781C3.80655 24.6331 4.31031 25.0312 4.89804 25.2019ZM11.0832 10.8116C9.68385 11.8923 7.66877 11.3236 6.99708 9.70252C6.32539 8.10992 7.36091 6.20449 8.90021 5.43664C9.37599 5.20912 9.96372 5.06693 10.4955 5.18068C11.0272 5.266 11.559 5.55039 11.9508 5.94854C12.3986 6.40357 12.7344 7.02923 12.8744 7.65489C12.9863 8.10992 12.8184 8.62183 12.6225 9.04842C12.2307 9.73096 11.6989 10.3282 11.0832 10.8116ZM9.348 9.95847C10.0757 10.0438 10.9433 9.58876 11.2791 8.93466C11.6709 8.19524 11.4191 7.17143 10.5794 7.19987C9.87976 7.22831 9.18008 7.85397 8.84423 8.47963C8.7043 8.76402 8.53637 9.13373 8.64832 9.475C8.73228 9.73096 9.06813 9.93003 9.348 9.95847Z" fill="#F58AB2"/>
<path d="M42.0875 26.4248C39.6526 27.5623 36.742 27.9605 34.0552 27.5908C32.1521 27.3064 30.2489 26.7092 28.5697 25.7707C26.9185 24.8322 25.4351 23.4671 24.3716 21.9029C23.1402 20.0828 22.3845 17.893 22.2446 15.7032C22.1327 14.0253 22.4125 12.2905 22.8883 10.6979C23.504 8.65027 24.4556 6.65952 25.743 4.95317C26.5546 3.87248 27.5622 2.87711 28.7096 2.22301C30.5848 1.1992 32.7958 0.68729 34.9228 0.68729C37.5816 0.68729 40.2683 1.42671 42.5353 2.84867C44.8582 4.24219 46.7893 6.5742 47.7409 9.16217C48.3846 10.9538 48.7764 12.8593 48.8604 14.7363C48.9723 17.5802 48.1327 20.3672 46.4815 22.6708C45.334 24.2349 43.8227 25.6 42.0875 26.4248ZM34.0272 23.7799C37.3297 24.0074 40.4642 22.5286 42.3954 19.8269C43.207 18.6893 43.7947 17.3527 44.0746 15.9591C44.5784 13.3996 44.2985 10.5841 43.3749 8.1668C42.8711 6.88704 42.1435 5.66415 41.1639 4.72566C40.884 4.4697 39.4007 3.38901 39.0369 3.18994C37.7495 2.47896 36.2382 2.08081 34.7549 2.02393C32.8517 1.96705 30.9486 2.47896 29.3254 3.50277C28.3458 4.12843 27.4502 4.92473 26.7505 5.86322C25.827 7.11455 25.0713 8.53651 24.5675 10.0153C23.9518 11.8639 23.7279 13.94 24.0358 15.8454C24.2877 17.3527 24.9594 18.7746 25.771 20.0828C26.1908 20.7369 26.6386 21.4195 27.2263 21.9029C28.01 22.5286 28.9615 22.8983 29.9131 23.1543C31.2565 23.524 32.6558 23.6946 34.0272 23.7799ZM33.6074 12.1483C31.8442 12.7455 29.8571 11.807 29.6052 9.93003C29.3813 8.19524 30.9766 6.00542 32.5719 5.35132C33.1596 5.12381 33.8033 5.01005 34.419 5.15224C35.0067 5.32288 35.5945 5.66415 35.9863 6.14762C36.574 6.88704 36.714 8.05304 36.4621 8.99154C36.0982 10.3566 34.9508 11.6933 33.6074 12.1483ZM32.264 10.3566C32.5159 10.4704 32.8517 10.4135 33.1036 10.3282C33.7473 10.0722 34.3351 9.50344 34.6709 8.87778C34.8388 8.59339 34.9788 8.19524 34.8388 7.91085C34.6989 7.65489 34.391 7.54114 34.1112 7.54114C33.3835 7.54114 32.6278 7.99617 32.208 8.59339C31.9841 8.93466 31.8442 9.38968 31.9282 9.81627C31.9562 10.0153 32.0961 10.2713 32.264 10.3566Z" fill="#F58AB2"/>
<path d="M64.6143 27.3064C62.5433 28.1596 60.1643 28.3871 57.9254 28.0742C55.9943 27.8183 54.0632 27.1642 52.3559 26.1688C50.5648 25.1166 49.1374 23.3818 48.4097 21.391C47.962 20.1113 47.766 18.6324 48.1019 17.3242C48.3258 16.4995 48.8016 15.7032 49.4453 15.1344C50.061 14.5941 50.8726 14.2528 51.6842 14.0822C51.2365 13.0015 50.5368 12.063 50.033 11.0107C49.6132 10.1575 49.4173 9.19061 49.4173 8.22368C49.4453 6.80172 49.949 5.35132 50.7327 4.18531C51.3764 3.27526 52.272 2.47896 53.2515 1.93861C55.1826 0.886364 57.4216 0.232262 59.6326 0.289142C60.836 0.31758 62.0395 0.601972 63.187 1.02856C64.7822 1.59734 66.3495 2.47896 67.497 3.75872C68.1687 4.4697 68.7284 5.35132 69.0643 6.28981C69.4841 7.34206 69.68 8.47963 69.68 9.6172C69.68 10.4704 69.4561 11.352 69.1202 12.1483C68.8684 12.774 68.4765 13.4281 67.8888 13.8262C68.8124 14.7647 69.4841 15.9307 69.9599 17.1536C70.3237 18.1205 70.6036 19.2012 70.4916 20.2535C70.3237 21.7323 69.708 23.2396 68.7564 24.3487C67.6369 25.6285 66.1816 26.6807 64.6143 27.3064ZM54.8468 24.2065C56.8619 24.8606 59.0449 24.889 61.0879 24.2918C62.3194 23.9506 63.5508 23.3249 64.5303 22.4717C65.0621 22.0167 65.5659 21.4763 65.9017 20.8507C66.4335 19.8553 66.7413 18.5471 66.3495 17.4949C65.9857 16.4995 65.37 15.5894 64.6143 14.8785C63.5508 13.8546 62.1794 13.2859 60.948 12.4896C60.2483 12.0061 59.5486 11.4373 59.0729 10.6979C58.5691 9.87315 58.3172 8.84934 58.2612 7.85397C58.2612 7.82553 58.5691 7.88241 58.5691 7.93929C59.0449 8.87778 59.4647 9.93003 60.2203 10.641C60.7241 11.1245 61.4518 11.4089 62.1235 11.4089C62.7112 11.4089 63.2989 11.1814 63.8027 10.8401C64.6143 10.2997 65.23 9.41812 65.4819 8.42275C66.1256 5.94854 64.0546 3.04774 61.7316 2.02393C60.3043 1.39827 58.5971 1.39827 57.0858 1.7111C55.5185 2.05237 53.9792 2.82023 52.7757 3.90092C52.16 4.4697 51.6283 5.18068 51.2924 5.94854C50.7047 7.3705 50.8446 9.19061 51.4883 10.6126C52.216 12.2336 53.5314 13.5702 55.1267 14.2812C55.7144 14.5372 56.3581 14.7363 56.8899 15.1344C58.4571 16.272 59.7445 18.0636 60.1923 19.9691C60.2203 19.9975 59.9125 20.0828 59.8845 20.0544C59.0449 19.0021 58.4571 17.7508 57.5336 16.7554C57.2257 16.4142 56.8619 16.1013 56.4421 15.8738C55.3226 15.2482 53.8672 15.0491 52.5798 15.3335C51.7402 15.5326 50.8726 15.9591 50.2849 16.6132C49.8371 17.1251 49.5572 17.8361 49.5012 18.5471C49.3893 19.9122 50.6207 22.2158 51.7962 22.8983C52.7478 23.4671 53.8113 23.8652 54.8468 24.2065Z" fill="#F58AB2"/>
<path d="M79.0141 27.8467C77.2789 28.5008 75.2639 28.444 73.5566 27.7045C72.6331 27.3064 71.7375 26.6523 71.1218 25.856C70.7859 25.4294 70.59 24.9459 70.3941 24.4625C69.6664 22.7277 69.2186 20.8791 68.8828 19.0306C68.7988 18.604 68.7149 18.1774 68.7149 17.7224C68.5749 15.3619 68.5469 12.973 68.7149 10.6126C68.8268 8.9631 69.0227 7.31362 69.4425 5.72103C69.7224 4.64034 70.1422 3.55965 70.7579 2.62116C71.1218 2.08081 71.5975 1.59734 72.1573 1.25607C74.4802 -0.165887 78.3984 -0.0236906 80.2176 2.02393C80.4695 2.27989 80.8053 2.6496 81.1691 2.59272C81.6169 2.53584 83.576 1.28451 83.9958 1.14232C85.3952 0.68729 86.8785 0.459776 88.3338 0.573533C89.2574 0.658851 90.209 0.914804 90.9926 1.39827C91.4684 1.7111 91.8322 2.16613 92.1121 2.62116C92.6439 3.47433 93.0637 4.44126 93.3715 5.4082C93.6514 6.20449 93.8753 7.02923 93.9313 7.85397C94.1832 10.9538 94.2112 14.0822 93.9033 17.1536C93.6794 19.514 93.2596 21.9314 92.2241 24.0074C91.7763 24.889 91.1885 25.7422 90.4049 26.311C89.7332 26.8514 88.9216 27.1926 88.11 27.477C87.1864 27.8183 86.1788 28.0458 85.1993 27.9889C84.6395 27.9605 84.0798 27.8467 83.632 27.5055C83.3521 27.3064 82.0088 26.1119 81.7569 25.8275C81.0572 26.7376 80.0776 27.4486 79.0141 27.8467ZM73.3048 24.0643C74.0604 24.4625 74.956 24.6331 75.7956 24.4625C76.4113 24.3203 76.9431 24.0074 77.3909 23.524C77.9226 22.9552 78.2585 22.2158 78.4824 21.4763C78.8182 20.3103 78.8742 19.0306 78.8182 17.8077C78.8182 17.5517 78.2025 16.983 78.0346 16.7554C78.0346 16.727 78.0346 16.6986 78.0346 16.6701C79.4619 17.0398 81.0012 16.8408 82.4286 16.4995C82.4845 16.4995 82.4286 16.5848 82.4006 16.6417C82.2886 16.8123 81.7289 17.5233 81.6729 17.7224C81.2811 19.315 81.589 21.2204 82.4845 22.5855C82.9323 23.268 83.688 23.8368 84.4996 23.979C85.3672 24.1496 86.3468 23.8368 87.0464 23.3249C87.7741 22.813 88.3898 22.0736 88.7537 21.2488C89.1735 20.2535 89.3974 19.1443 89.5093 18.0352C89.6492 16.4426 89.5933 14.85 89.7052 13.229C89.7892 11.9777 89.7332 10.7263 89.6772 9.475C89.6213 8.33743 89.5373 7.17143 89.3694 6.03386C89.2854 5.49351 89.1735 4.92473 88.9496 4.44126C88.6417 3.70185 88.1379 3.01931 87.4663 2.62116C86.8785 2.30832 86.1509 2.19457 85.4792 2.30832C84.4716 2.47896 83.4921 3.10462 82.7924 3.87248C81.477 5.29444 80.9452 7.31362 81.3371 9.21905C81.421 9.6172 81.9808 9.73096 82.2047 10.1007C82.2327 10.186 82.2606 10.3282 82.1767 10.3282C80.6094 9.90159 78.9022 9.93003 77.3069 10.2429C77.195 10.2713 77.3349 10.0722 77.3909 9.95847C77.6707 9.6172 78.1745 9.56032 78.5104 9.27593C78.6503 9.13373 78.7343 8.87778 78.7343 8.65027C78.7063 7.68333 78.5104 6.68796 78.2865 5.74947C78.0346 4.83941 77.7547 3.9578 77.223 3.18994C77.027 2.87711 76.7472 2.59272 76.4113 2.42208C75.5717 1.96705 73.6966 1.93861 72.9129 2.47896C72.2133 2.96243 71.7095 3.75872 71.3736 4.58346C70.7579 6.00542 70.506 7.59802 70.3381 9.13373C70.0862 11.3236 70.0862 13.5134 70.0582 15.6747C70.0582 17.893 70.2821 20.225 71.3456 22.1589C71.7934 22.9552 72.4931 23.6662 73.3048 24.0643Z" fill="#F58AB2"/>
<path d="M93.4131 8.28056C93.4131 8.33743 93.4411 8.19524 93.4411 8.1668C93.4691 8.08148 93.4411 8.22368 93.4131 8.28056ZM97.4152 28.6146C96.7995 28.6999 96.0998 28.6146 95.5401 28.3302C95.0363 28.1027 94.6165 27.6477 94.3367 27.1642C94.0008 26.567 93.8329 25.856 93.7769 25.2019C93.637 23.5808 94.1407 21.9598 95.1483 20.68C95.82 19.8553 96.7436 19.1728 97.7511 18.8884C99.4303 18.4049 101.277 19.1728 102.117 20.7085C102.621 21.6185 102.901 22.7277 102.733 23.7515C102.509 25.0312 101.837 26.3963 100.802 27.1357C99.7942 27.8752 98.6467 28.4724 97.4152 28.6146ZM95.5121 24.1212C95.764 24.9175 96.6876 25.0028 97.4432 24.7184C98.5627 24.2918 99.7941 22.813 99.7382 21.5901C99.6542 20.3388 98.0869 20.3388 97.0514 21.0498C96.1838 21.647 95.2322 23.0974 95.5121 24.1212Z" fill="#F58AB2"/>
<path d="M111.036 26.1973C108.097 29.4109 102.863 27.9605 102.052 23.6662C101.744 21.9598 102.136 20.1966 102.36 18.4618C103.003 13.3427 105.41 8.25212 108.769 4.35595C109.58 3.44589 110.364 2.47896 111.343 1.82486C112.099 1.31295 112.995 1.057 113.862 0.943243C115.29 0.801047 116.857 1.057 118.144 1.7111C119.208 2.25145 120.103 3.07618 120.887 3.98624C122.118 5.37976 123.098 7.02923 123.938 8.73558C125.057 11.0107 125.925 13.4281 126.54 15.9023C127.016 17.8646 127.324 19.8838 127.24 21.9029C127.212 22.813 127.156 23.7515 126.876 24.6047C126.708 25.145 126.401 25.6853 126.009 26.0835C125.309 26.7376 124.301 27.0789 123.378 27.2495C121.867 27.5055 120.299 27.4486 118.844 27.0789C117.976 26.8798 117.137 26.3394 116.493 25.7138C115.206 24.4625 114.31 22.8699 113.275 21.391C112.855 23.0974 112.211 24.889 111.036 26.1973ZM105.102 24.9744C105.438 25.145 105.858 25.2303 106.25 25.1734C106.893 25.1166 107.537 24.7469 108.041 24.3203C108.825 23.6946 109.468 22.8983 109.944 22.0167C110.588 20.9076 110.98 19.6278 111.343 18.4049C111.399 18.2343 111.623 17.4949 111.623 17.2958C111.623 17.2105 111.483 17.1251 111.399 17.0683C111.148 16.983 110.896 16.9545 110.616 16.9261C111.204 16.8408 114.562 16.3288 115.122 16.2151C115.206 16.2151 115.318 16.3573 115.374 16.3857C114.926 16.6701 114.45 16.8976 113.974 17.0683C114.254 18.6324 114.478 20.2535 115.038 21.7323C115.402 22.7277 115.989 23.723 116.857 24.3487C117.473 24.8037 118.228 25.1734 118.984 25.1166C119.74 25.0312 120.495 24.5762 121.027 24.0074C121.587 23.3818 122.007 22.557 122.174 21.7039C122.37 20.7938 122.37 19.7984 122.342 18.8599C122.258 17.3811 122.035 15.9023 121.643 14.4803C121.251 13.0299 118.9 6.88704 118.116 5.63571C117.445 4.55502 116.493 3.58809 115.374 2.99086C114.73 2.6496 113.946 2.42208 113.247 2.59272C112.183 2.84867 111.287 3.61653 110.532 4.41282C107.817 7.3705 105.746 11.096 104.627 14.9922C104.095 16.8123 103.731 18.6893 103.619 20.5947C103.591 21.4195 103.563 22.3011 103.731 23.1258C103.815 23.524 103.955 23.9506 104.235 24.2918C104.487 24.5478 104.766 24.8037 105.102 24.9744ZM115.346 8.13836C116.549 10.2997 115.01 13.0015 112.575 13.0015C110.392 13.0015 109.496 10.3566 110.56 8.36587C111.259 7.08611 112.743 6.11918 114.03 6.77328C114.59 7.05767 115.066 7.56958 115.346 8.13836ZM111.959 10.8401C112.071 11.2667 112.407 11.5226 112.799 11.5226C113.61 11.5226 114.422 10.7832 114.506 9.95847C114.562 9.64564 114.45 9.24749 114.198 9.01997C113.974 8.84934 113.666 8.79246 113.387 8.8209C112.435 8.84934 111.679 9.90159 111.959 10.8401Z" fill="#F58AB2"/>
<path d="M142.956 28.0174C140.745 28.4724 138.422 28.643 136.211 28.3018C134.56 28.0458 132.937 27.3917 131.565 26.4248C129.69 25.1166 128.151 23.1827 127.283 21.0498C126.136 18.3765 125.632 15.2482 126.08 12.3758C126.444 10.0438 127.479 7.79709 128.962 5.97698C130.894 3.61653 133.552 1.91018 136.519 1.17076C138.226 0.744168 140.045 0.68729 141.809 0.914804C143.236 1.11388 144.691 1.48359 145.979 2.13769C146.818 2.53584 147.714 3.13306 148.134 3.9578C148.553 4.81097 148.777 5.80635 148.721 6.77328C148.665 7.54114 148.441 8.309 148.05 8.9631C147.63 9.70252 146.958 10.3282 146.203 10.7548C145.279 11.2951 144.215 11.5795 143.152 11.6648C141.92 11.7501 140.605 11.6933 139.43 12.0914C138.87 12.2905 138.366 12.6602 137.974 13.1152C137.191 14.1106 136.799 15.4472 136.743 16.6986C136.715 17.0398 136.687 17.4949 136.995 17.4949C137.722 17.4949 139.318 17.5233 139.71 16.8976C140.157 16.1867 139.989 15.2197 140.381 14.4803C140.633 14.0537 141.025 13.684 141.417 13.3712C142.2 12.774 143.18 12.3474 144.131 12.2905C144.523 12.262 144.915 12.3189 145.279 12.4327C146.594 12.8593 147.91 13.4849 148.917 14.4803C150.037 15.5894 150.736 17.0967 151.212 18.604C151.436 19.3434 151.464 20.1681 151.352 20.9076C151.072 22.7845 149.953 24.6615 148.441 25.7707C146.818 26.9082 144.887 27.5908 142.956 28.0174ZM132.965 24.0643C134.84 24.8322 136.939 25.0597 138.982 24.9175C140.661 24.8037 142.368 24.5193 143.908 23.8368C144.887 23.3818 145.895 22.7277 146.482 21.7892C147.434 20.2819 147.658 18.2343 147.294 16.471C147.126 15.561 146.818 14.5941 146.147 13.9684C144.943 12.8593 142.928 13.3143 141.781 14.4803C141.193 15.106 140.773 16.016 140.801 16.8692C140.829 17.6655 141.137 18.4049 141.389 19.1728C141.473 19.4856 141.053 19.1159 140.773 18.9453C140.549 18.8031 140.409 18.5755 140.185 18.4049C140.073 18.2912 139.905 18.2058 139.737 18.2343C138.45 18.3765 137.051 18.5187 135.819 18.0636C135.092 17.8361 134.448 17.2673 134.084 16.5848C133.608 15.6179 133.552 14.3665 133.748 13.2859C133.944 12.2336 134.364 11.1814 135.036 10.3851C135.399 9.95847 135.847 9.58876 136.351 9.36125C136.687 9.21905 137.079 9.16217 137.443 9.10529C138.954 8.93466 140.465 9.04842 141.976 9.13373C142.788 9.16217 143.656 8.90622 144.299 8.42275C144.915 7.99617 145.391 7.28518 145.559 6.54577C145.727 5.83478 145.587 5.06693 145.223 4.44126C144.803 3.70185 144.103 3.13306 143.348 2.79179C142.032 2.19457 140.493 2.10925 139.038 2.22301C137.051 2.39364 134.952 2.90555 133.244 3.98624C131.761 4.95317 130.446 6.31825 129.466 7.82553C128.795 8.8209 128.263 9.95847 127.983 11.1529C127.479 13.3996 127.423 15.8169 127.955 18.0636C128.291 19.4003 128.85 20.7369 129.746 21.7892C130.586 22.813 131.733 23.5808 132.965 24.0643Z" fill="#F58AB2"/>
<path d="M163.345 28.0742C161.358 28.2164 159.259 27.9889 157.44 27.2495C155.509 26.4532 153.773 25.0028 152.598 23.268C151.367 21.4763 150.583 19.3718 150.191 17.2389C149.463 13.4281 149.911 9.24749 151.395 5.66415C151.758 4.81097 152.374 4.01468 153.074 3.38901C154.221 2.42208 155.705 1.79642 157.132 1.36983C159.735 0.573533 162.533 0.232262 165.22 0.601972C166.843 0.857925 168.551 1.36983 169.81 2.47896C170.314 2.93399 170.762 3.53121 171.014 4.18531C171.265 4.83941 171.349 5.60727 171.293 6.31825C171.265 6.8586 170.482 8.70714 170.706 9.19061C171.377 10.5841 171.629 12.2336 171.489 13.7693C171.405 14.8216 171.126 15.9023 170.65 16.8408C170.538 17.0398 170.37 17.182 170.258 17.3527C170.93 18.3765 171.209 19.6562 171.209 20.8791C171.237 22.1589 171.042 23.4955 170.398 24.5762C169.866 25.4294 169.082 26.1688 168.215 26.6807C166.76 27.5623 165.024 27.9605 163.345 28.0742ZM155.649 23.0121C157.412 23.979 159.595 24.0359 161.582 23.8937C163.149 23.7799 164.856 23.5524 166.088 22.5855C166.648 22.1589 167.123 21.5332 167.207 20.8507C167.319 20.0828 166.899 19.2581 166.396 18.6893C165.528 17.7792 164.297 17.182 163.065 16.9261C160.91 16.5279 158.643 16.727 156.432 16.9545C156.348 16.8692 156.348 16.4426 156.292 16.3288C156.404 16.2151 156.46 16.0729 156.488 15.9307C156.516 15.8738 156.572 15.7032 156.656 15.7032C157.328 15.7885 161.078 15.8738 161.75 15.8738C162.729 15.8454 163.709 15.6747 164.632 15.305C165.864 14.85 167.067 14.0253 167.879 12.9446C168.411 12.2052 168.635 11.0392 168.243 10.2144C167.879 9.38968 167.039 8.73558 166.172 8.53651C165.36 8.33743 164.521 8.36587 163.681 8.47963C162.03 8.70714 160.406 9.27593 158.839 9.87315C158.559 9.53188 158.391 9.10529 158.363 8.65027C158.335 8.47963 158.363 8.25212 158.475 8.13836C158.559 8.05304 158.727 8.0246 158.839 8.0246C159.259 8.05304 159.651 8.0246 160.043 8.0246C161.218 7.93929 162.394 7.82553 163.569 7.65489C164.269 7.54114 164.94 7.45582 165.612 7.25675C167.767 6.65952 169.25 4.12843 167.487 2.73491C166.899 2.27989 166.116 2.05237 165.388 1.93861C163.653 1.65422 161.806 1.8533 160.099 2.27989C158.587 2.67803 157.076 3.24682 155.705 4.04311C154.725 4.58346 153.773 5.29444 153.158 6.23293C152.542 7.19987 152.262 8.39431 152.122 9.53188C151.87 11.6079 151.758 13.7693 152.066 15.8454C152.318 17.6086 152.794 19.3718 153.662 20.9076C154.137 21.7323 154.809 22.557 155.649 23.0121Z" fill="#F58AB2"/>
<path d="M190.351 28.5293C188.84 28.643 187.189 28.0458 186.069 27.0504C184.754 25.8844 183.998 24.2065 183.075 22.6992C182.823 24.2065 182.151 25.7138 181.144 26.8514C180.584 27.5055 179.828 28.1027 179.017 28.3586C178.373 28.5577 177.673 28.5293 177.029 28.3586C175.994 28.1027 175.042 27.4201 174.287 26.6807C173.027 25.4578 172.048 23.8368 171.6 22.1304C171.264 20.7938 171.152 19.4003 171.068 18.0352C170.928 15.2766 171.012 12.4896 171.432 9.75939C171.656 8.1668 171.964 6.54577 172.719 5.12381C173.055 4.55502 173.503 4.04311 173.979 3.55965C174.539 2.96243 175.154 2.39364 175.854 1.91018C176.582 1.42671 177.533 1.25607 178.401 1.25607C180.276 1.25607 182.207 1.99549 183.774 3.04774C184.334 3.44589 185.062 3.18994 185.426 2.59272C186.153 1.54047 187.385 0.68729 188.644 0.459776C190.183 0.232262 191.863 0.744168 193.15 1.62578C194.354 2.45052 195.333 3.64497 195.921 4.98161C196.565 6.43201 196.956 8.0246 197.152 9.58876C197.46 12.1198 197.32 14.6794 197.124 17.2105C196.928 19.7984 196.732 22.4717 195.697 24.8606C195.277 25.9129 194.633 26.9367 193.71 27.6192C193.178 28.0458 190.995 28.4724 190.351 28.5293ZM186.881 24.9744C188.056 25.6853 190.155 25.3725 191.135 24.4056C191.555 23.979 191.863 23.4102 192.087 22.8414C192.73 21.3057 193.038 19.6278 193.318 18.0068C193.682 15.7032 193.906 13.3712 193.906 11.0392C193.934 8.93466 193.71 6.74484 192.982 4.78253C192.143 2.62116 189.82 1.1992 187.861 2.42208C187.049 2.93399 186.461 3.8156 186.097 4.69722C185.482 6.14762 185.314 7.79709 185.342 9.36125C185.342 11.9777 185.761 14.5941 186.573 17.0398C186.685 17.3811 186.153 16.8123 186.013 16.4995C185.286 14.9069 184.922 13.1437 184.726 11.3804C184.586 10.2997 182.599 6.23293 182.095 5.23756C181.228 3.58809 178.989 2.08081 177.225 2.56428C176.61 2.73491 176.05 3.10462 175.574 3.53121C174.707 4.27063 174.091 5.29444 173.615 6.34669C172.552 8.84934 172.272 11.7217 172.328 14.4519C172.384 16.6986 172.58 18.9737 173.223 21.1351C173.531 22.1304 173.923 23.1258 174.595 23.9506C175.07 24.5193 175.798 25.0312 176.554 25.0597C177.281 25.0881 178.037 24.8037 178.597 24.3487C179.212 23.8368 179.632 23.0974 179.912 22.358C180.612 20.481 180.752 18.2912 180.332 16.3288C180.22 15.7032 180.052 15.0775 179.828 14.5087C179.744 14.3381 179.436 13.6271 179.436 13.4565C179.436 13.3712 179.52 13.2574 179.604 13.2005C180.78 14.6794 181.256 16.6417 182.123 18.3196C182.879 19.77 183.774 21.1635 184.698 22.5002C185.174 23.1827 185.678 23.8368 186.237 24.434C186.433 24.6331 186.657 24.8322 186.881 24.9744Z" fill="#F58AB2"/>
<path d="M209.883 27.9889C207.28 28.2449 204.509 27.5055 202.242 26.1973C201.347 25.6853 200.563 24.9744 199.891 24.1781C198.856 22.9267 198.072 21.4195 197.513 19.8553C196.617 17.3527 196.393 14.5087 196.925 11.8923C197.541 8.87778 199.108 6.14762 201.347 4.12843C202.998 2.67803 205.041 1.59734 207.168 1.14232C209.687 0.601972 212.486 0.857925 214.837 1.91018C216.292 2.59272 217.579 3.67341 218.587 4.92473C219.259 5.80635 219.79 6.91547 219.902 8.0246C219.958 8.47963 219.874 8.99154 219.706 9.41812C219.399 10.2713 218.811 11.0392 218.055 11.4942C216.908 12.1767 215.48 12.3758 214.165 12.3474C213.549 12.3474 212.934 12.2336 212.318 12.1198C211.842 12.0061 211.31 12.0345 210.806 12.1767C209.883 12.4042 209.015 13.0015 208.344 13.7124C207.924 14.1106 207.644 14.6509 207.448 15.1913C207.196 15.8169 207 16.5279 207.056 17.182C208.847 16.727 210.415 15.6179 212.01 14.6794C212.961 14.139 213.969 13.5702 215.061 13.3996C215.984 13.2574 217.02 13.3996 217.859 13.8831C218.923 14.4519 219.734 15.5326 220.182 16.6701C220.938 18.6893 220.686 20.9929 219.482 22.8414C219.231 23.2396 218.895 23.6093 218.587 23.9506C217.775 24.8037 216.908 25.6569 215.872 26.2257C214.053 27.2211 211.954 27.7614 209.883 27.9889ZM206.944 24.2634C209.127 24.5193 211.45 24.0359 213.409 23.0405C214.585 22.4433 215.648 21.5332 216.376 20.4241C216.88 19.6562 217.244 18.7462 217.271 17.8077C217.271 17.4095 217.216 17.0114 217.076 16.6132C216.936 16.1582 216.712 15.6463 216.32 15.3619C215.956 15.0775 215.424 15.0491 215.005 15.106C214.109 15.2482 213.269 15.6747 212.458 16.0729C211.45 16.5848 210.471 17.1536 209.435 17.6655C208.679 18.0352 207.868 18.4049 207.028 18.4618C206.496 18.4902 205.321 18.1205 204.957 17.7508C204.341 17.0683 204.006 16.1013 203.922 15.1628C203.754 13.3143 204.593 11.3236 205.825 9.98691C206.664 9.10529 207.868 8.50807 209.043 8.19524C209.575 8.05304 210.163 8.10992 210.695 8.25212C211.59 8.47963 212.43 8.93466 213.353 9.13373C213.941 9.27593 214.669 9.27593 215.172 8.93466C216.264 8.19524 216.572 6.46045 215.984 5.266C215.564 4.44126 214.809 3.84404 214.025 3.38901C212.85 2.73491 211.422 2.45052 210.079 2.47896C208.595 2.5074 207.084 2.90555 205.713 3.53121C204.034 4.29907 202.438 5.46508 201.263 6.94391C200.311 8.10992 199.668 9.53188 199.22 10.9823C198.632 13.0868 198.464 15.3904 198.968 17.5233C199.192 18.5471 199.612 19.5425 200.227 20.3957C200.703 21.1066 201.319 21.7039 201.991 22.2158C203.418 23.2965 205.181 24.0643 206.944 24.2634Z" fill="#F58AB2"/>
<path d="M234.67 28.0742C233.719 28.5293 232.571 28.8421 231.536 28.643C230.948 28.5293 230.36 28.2164 229.856 27.8467C228.989 27.2211 228.261 26.4248 227.645 25.5431C227.142 24.8322 226.694 24.0074 226.498 23.1543C225.91 20.7938 226.078 18.3196 226.218 15.8738C224.287 13.8546 222.076 12.0914 220.481 9.78783C219.921 8.99154 219.333 8.13836 219.081 7.17143C218.773 6.14762 218.829 5.03849 219.193 4.04311C219.585 2.96243 220.369 1.96705 221.292 1.31295C222.524 0.402899 224.147 -0.0521296 225.658 0.00474981C226.498 0.0331886 227.365 0.260703 228.149 0.630411C229.604 1.25607 230.92 2.27989 232.011 3.47433C232.123 3.61653 232.291 3.75872 232.459 3.8156C232.683 3.87248 232.935 3.8156 233.159 3.70185C233.495 3.53121 233.775 3.3037 234.054 3.04774C235.034 2.10925 236.125 1.25607 237.329 0.68729C238.196 0.289142 239.204 0.0331886 240.156 0.146946C241.191 0.289142 242.199 0.829486 242.954 1.56891C244.186 2.82023 244.997 4.66878 244.997 6.43201C245.025 7.19987 244.829 7.99617 244.466 8.67871C243.178 11.1245 241.247 13.1721 239.4 15.2197C239.12 15.5041 238.113 16.4995 238.029 16.8976C237.945 17.3527 237.973 19.7984 237.945 20.2819C237.917 21.647 237.805 23.0405 237.413 24.3771C237.133 25.3156 236.657 26.2541 236.041 27.022C235.678 27.477 235.174 27.8183 234.67 28.0742ZM227.449 21.0782C227.673 22.9552 228.569 25.2872 230.444 25.145C231.368 25.0881 232.263 24.3771 232.795 23.5808C233.383 22.6708 233.691 21.5617 233.858 20.481C234.082 18.9737 234.026 17.4095 233.914 15.8738C233.83 14.0822 237.357 11.2951 238.644 10.0438C239.344 9.38968 239.96 8.65027 240.491 7.82553C240.967 7.11455 241.359 6.34669 241.527 5.52195C241.891 3.75872 240.911 1.91018 239.148 1.73954C238.336 1.65422 237.497 1.99549 236.769 2.39364C234.922 3.50277 233.467 5.266 232.263 7.08611C231.536 8.13836 230.864 9.27593 230.36 10.4704C230.36 10.4988 230.108 10.5841 230.08 10.5557C230.052 10.4988 229.912 10.3851 229.94 10.3282C230.136 9.58876 230.584 8.90622 230.808 8.13836C230.948 7.68333 230.948 7.11455 230.724 6.68796C230.08 5.29444 228.961 4.09999 227.729 3.21838C226.666 2.47896 225.406 1.88174 224.147 1.91018C221.88 1.96705 220.145 4.04311 220.621 6.28981C220.816 7.19987 221.348 8.0246 221.908 8.76402C222.664 9.81627 223.587 10.7263 224.539 11.6079C225.322 12.2905 226.134 12.973 227.03 13.4849C227.198 13.5987 227.337 13.7409 227.393 13.94C227.589 14.395 227.561 14.9353 227.533 15.4188C227.337 17.2958 227.198 19.2296 227.449 21.0782Z" fill="#F58AB2"/>
</svg>
