<svg width="229" height="29" viewBox="0 0 229 29" fill="none" xmlns="http://www.w3.org/2000/svg">
<g filter="url(#filter0_d_171_575)">
<path d="M8.01294 26.1667C6.71639 26.782 4.95308 26.5145 3.81212 25.6585C3.06012 25.0967 2.43778 24.2674 1.97102 23.4382C1.1931 22.0204 0.674477 20.4688 0.363306 18.8638C-0.0256587 16.8575 -0.0515896 14.7709 0.0521342 12.7111C0.129927 10.9723 0.311444 9.26024 0.700408 7.57494C0.985648 6.37115 1.34868 5.11387 2.07475 4.15084C2.82675 3.13431 3.65654 2.03753 4.7975 1.55601C5.23832 1.36876 7.39059 0.833741 7.85735 0.75349C9.67252 0.485982 11.5395 0.539483 13.3547 0.887244C14.7809 1.15475 16.2071 1.63627 17.4518 2.43879C18.7743 3.26806 19.9671 4.5521 20.5894 6.02339C21.134 7.36093 21.4452 8.83223 21.4711 10.2768C21.4711 11.8016 21.1599 13.4066 20.4598 14.7442C19.8634 15.8944 18.9299 16.8575 17.8667 17.5797C16.5961 18.4893 15.0402 19.0778 13.4844 19.2115C12.6027 19.2918 11.747 19.1045 10.8653 19.051C10.8653 20.3886 10.7357 21.7796 10.3467 23.0636C10.0874 23.8394 9.72438 24.6419 9.17983 25.284C8.84273 25.6585 8.45376 25.9795 8.01294 26.1667ZM4.53819 23.7057C4.87529 23.8127 5.26425 23.7859 5.57543 23.6522C6.5608 23.2509 7.44245 21.1376 7.59804 20.0676C7.75363 19.1313 7.67583 18.1683 7.54618 17.232C7.46839 16.911 6.94977 15.6537 6.79418 15.3862C6.6386 15.1187 6.53487 14.8244 6.50894 14.5034C7.13128 15.0384 9.46507 15.9212 10.2689 15.9747C11.358 16.0549 12.4471 15.7607 13.4325 15.3059C14.1845 14.9582 14.9365 14.5301 15.507 13.8881C17.2703 11.8818 17.8408 8.91248 16.9332 6.3979C16.4405 5.00686 15.3773 3.72283 14.0808 3.05406C13.7437 2.8668 13.3547 2.7598 12.9657 2.67955C11.3321 2.30503 9.62066 2.14453 7.96107 2.33179C7.13128 2.41204 6.32742 2.54579 5.5495 2.8133C5.00495 3.00056 4.4604 3.29481 4.0455 3.72283C3.55281 4.20434 3.21571 4.87311 2.9564 5.54188C2.54151 6.55841 2.2822 7.65519 2.02289 8.75198C1.5302 10.7315 1.50427 12.8448 1.50427 14.9047C1.47834 16.9377 1.45241 19.0778 2.12661 21.0038C2.33406 21.6191 2.69709 22.2344 3.13792 22.7426C3.52688 23.1707 3.99364 23.5452 4.53819 23.7057ZM10.2689 10.1698C8.97238 11.1863 7.10535 10.6513 6.48301 9.12649C5.86067 7.62844 6.82011 5.83614 8.24632 5.11387C8.68714 4.89986 9.23169 4.76611 9.72438 4.87311C10.2171 4.95336 10.7098 5.22087 11.0728 5.59538C11.4877 6.02339 11.7989 6.61191 11.9285 7.20043C12.0322 7.62844 11.8766 8.10996 11.6951 8.51122C11.3321 9.15324 10.8394 9.715 10.2689 10.1698ZM8.66121 9.36724C9.33541 9.4475 10.1393 9.01948 10.4504 8.40422C10.8135 7.70869 10.5801 6.74567 9.80217 6.77242C9.1539 6.79917 8.50562 7.38768 8.19445 7.9762C8.0648 8.24371 7.90921 8.59147 8.01294 8.91248C8.09073 9.15324 8.4019 9.34049 8.66121 9.36724Z" fill="#F58AB2"/>
<path d="M38.9954 24.8559C36.7394 25.926 34.0425 26.3005 31.5532 25.9527C29.7899 25.6852 28.0266 25.1235 26.4707 24.2407C24.9408 23.3579 23.5664 22.0739 22.5811 20.6026C21.4401 18.8905 20.74 16.8307 20.6103 14.7709C20.5066 13.1926 20.7659 11.5608 21.2067 10.0628C21.7772 8.13671 22.6589 6.26415 23.8517 4.6591C24.6037 3.64257 25.5372 2.7063 26.6004 2.09103C28.3377 1.128 30.3863 0.646486 32.357 0.646486C34.8205 0.646486 37.3098 1.34201 39.4102 2.67955C41.5625 3.99033 43.3518 6.1839 44.2334 8.61822C44.8298 10.3035 45.1929 12.0958 45.2706 13.8614C45.3744 16.5365 44.5964 19.158 43.0665 21.3248C42.0033 22.7961 40.6031 24.0802 38.9954 24.8559ZM31.5272 22.3681C34.5871 22.5821 37.4914 21.1911 39.2806 18.6498C40.0326 17.5797 40.5771 16.3224 40.8365 15.0117C41.3032 12.6041 41.0439 9.95576 40.1882 7.68194C39.7214 6.47816 39.0472 5.32787 38.1396 4.4451C37.8803 4.20434 36.506 3.18781 36.1689 3.00056C34.9761 2.33179 33.5758 1.95727 32.2014 1.90377C30.4381 1.85027 28.6748 2.33179 27.1708 3.29481C26.2633 3.88333 25.4335 4.63235 24.7852 5.51513C23.9295 6.69216 23.2293 8.0297 22.7626 9.42074C22.1921 11.1595 21.9847 13.1124 22.2699 14.9047C22.5033 16.3224 23.1256 17.66 23.8776 18.8905C24.2666 19.5058 24.6815 20.1478 25.226 20.6026C25.9521 21.1911 26.8337 21.5389 27.7154 21.7796C28.9601 22.1274 30.2566 22.2879 31.5272 22.3681ZM31.1383 11.4271C29.5046 11.9888 27.6635 11.106 27.4302 9.34049C27.2227 7.70869 28.7008 5.64888 30.1788 5.03361C30.7234 4.81961 31.3198 4.71261 31.8903 4.84636C32.4348 5.00686 32.9794 5.32787 33.3424 5.78264C33.887 6.47816 34.0166 7.57494 33.7832 8.45772C33.4461 9.74175 32.383 10.999 31.1383 11.4271ZM29.8936 9.74175C30.127 9.84876 30.4381 9.79526 30.6715 9.715C31.2679 9.47425 31.8125 8.93923 32.1237 8.35071C32.2792 8.08321 32.4089 7.70869 32.2792 7.44119C32.1496 7.20043 31.8643 7.09343 31.605 7.09343C30.9308 7.09343 30.2307 7.52144 29.8417 8.08321C29.6343 8.40422 29.5046 8.83223 29.5824 9.23349C29.6084 9.42074 29.738 9.6615 29.8936 9.74175Z" fill="#F58AB2"/>
<path d="M59.8671 25.6852C57.9482 26.4877 55.7441 26.7018 53.6696 26.4075C51.8804 26.1667 50.0912 25.5515 48.5094 24.6152C46.8498 23.6254 45.5273 21.9936 44.8531 20.1211C44.4382 18.9173 44.2567 17.5262 44.5679 16.2957C44.7753 15.5199 45.2161 14.7709 45.8126 14.2359C46.383 13.7276 47.135 13.4066 47.887 13.2461C47.4721 12.2296 46.8239 11.3468 46.3571 10.357C45.9681 9.5545 45.7866 8.64497 45.7866 7.73544C45.8126 6.3979 46.2793 5.03361 47.0054 3.93683C47.6018 3.08081 48.4316 2.33179 49.3392 1.82352C51.1284 0.833741 53.2029 0.218473 55.2514 0.271975C56.3665 0.298726 57.4815 0.566234 58.5447 0.967495C60.0227 1.50251 61.4748 2.33179 62.538 3.53557C63.1604 4.20434 63.679 5.03361 63.9902 5.91639C64.3791 6.90617 64.5606 7.9762 64.5606 9.04623C64.5606 9.84876 64.3532 10.678 64.042 11.4271C63.8086 12.0156 63.4456 12.6308 62.9011 13.0054C63.7568 13.8881 64.3791 14.9849 64.8199 16.1352C65.1571 17.0447 65.4164 18.0613 65.3126 19.051C65.1571 20.4421 64.5866 21.8599 63.7049 22.9031C62.6677 24.1069 61.3193 25.0967 59.8671 25.6852ZM50.8172 22.7694C52.6843 23.3847 54.7069 23.4114 56.5998 22.8496C57.7408 22.5286 58.8818 21.9401 59.7893 21.1376C60.282 20.7096 60.7488 20.2013 61.06 19.6128C61.5526 18.6765 61.8379 17.446 61.4749 16.4562C61.1378 15.5199 60.5673 14.6639 59.8671 13.9951C58.8818 13.0321 57.6111 12.4971 56.4702 11.7481C55.8219 11.2933 55.1736 10.7583 54.7328 10.0628C54.2661 9.28699 54.0327 8.32396 53.9808 7.38768C53.9808 7.36093 54.266 7.41444 54.266 7.46794C54.7069 8.35071 55.0958 9.34049 55.796 10.0093C56.2627 10.464 56.9369 10.7315 57.5593 10.7315C58.1038 10.7315 58.6484 10.5175 59.1151 10.1965C59.8671 9.68825 60.4376 8.85898 60.671 7.9227C61.2674 5.59538 59.3485 2.8668 57.1963 1.90377C55.8738 1.31526 54.292 1.31526 52.8917 1.60952C51.4396 1.93052 50.0134 2.6528 48.8983 3.66932C48.3279 4.20434 47.8352 4.87311 47.524 5.59538C46.9795 6.93292 47.1091 8.64497 47.7055 9.98251C48.3797 11.5073 49.5985 12.7646 51.0765 13.4334C51.6211 13.6741 52.2175 13.8614 52.7102 14.2359C54.1623 15.3059 55.3551 16.9912 55.77 18.7835C55.796 18.8103 55.5107 18.8905 55.4848 18.8638C54.7069 17.874 54.1623 16.697 53.3066 15.7607C53.0214 15.4397 52.6843 15.1454 52.2953 14.9314C51.2581 14.3429 49.9096 14.1556 48.7168 14.4231C47.9389 14.6104 47.135 15.0117 46.5905 15.6269C46.1756 16.1084 45.9163 16.7772 45.8644 17.446C45.7607 18.73 46.9017 20.8968 47.9908 21.5389C48.8724 22.0739 49.8578 22.4484 50.8172 22.7694Z" fill="#F58AB2"/>
<path d="M73.209 26.1935C71.6013 26.8088 69.7343 26.7553 68.1525 26.0597C67.2968 25.6852 66.467 25.07 65.8965 24.3209C65.5853 23.9197 65.4038 23.4649 65.2223 23.0101C64.5481 21.3783 64.1332 19.6395 63.822 17.9007C63.7442 17.4995 63.6664 17.0982 63.6664 16.6702C63.5368 14.4499 63.5108 12.2028 63.6664 9.98251C63.7701 8.43097 63.9517 6.87942 64.3406 5.38138C64.5999 4.36485 64.9889 3.34832 65.5594 2.46554C65.8965 1.95727 66.3373 1.50251 66.8559 1.1815C69.0082 -0.156038 72.6385 -0.0222841 74.324 1.90377C74.5574 2.14453 74.8686 2.49229 75.2057 2.43879C75.6206 2.38529 77.4358 1.20825 77.8247 1.0745C79.1213 0.646486 80.4956 0.43248 81.844 0.539483C82.6997 0.619736 83.5814 0.860493 84.3075 1.31526C84.7483 1.60952 85.0854 2.03753 85.3447 2.46554C85.8374 3.26806 86.2263 4.17759 86.5116 5.08712C86.7709 5.83614 86.9783 6.61191 87.0302 7.38768C87.2636 10.3035 87.2895 13.2461 87.0043 16.1352C86.7968 18.3555 86.4079 20.6293 85.4484 22.5821C85.0335 23.4114 84.489 24.2139 83.7629 24.7489C83.1406 25.2572 82.3886 25.5782 81.6366 25.8457C80.7809 26.1667 79.8473 26.3807 78.9398 26.3272C78.4211 26.3005 77.9025 26.1935 77.4876 25.8725C77.2283 25.6852 75.9836 24.5617 75.7502 24.2942C75.102 25.1502 74.1944 25.819 73.209 26.1935ZM67.9191 22.6356C68.6192 23.0101 69.449 23.1707 70.227 23.0101C70.7974 22.8764 71.2901 22.5821 71.705 22.1274C72.1977 21.5924 72.5089 20.8968 72.7163 20.2013C73.0275 19.1045 73.0794 17.9007 73.0275 16.7505C73.0275 16.5097 72.457 15.9747 72.3014 15.7607C72.3014 15.7339 72.3014 15.7072 72.3014 15.6804C73.6239 16.0282 75.0501 15.8409 76.3726 15.5199C76.4245 15.5199 76.3726 15.6002 76.3467 15.6537C76.2429 15.8142 75.7243 16.483 75.6725 16.6702C75.3094 18.1683 75.5947 19.9606 76.4245 21.2446C76.8393 21.8866 77.5395 22.4216 78.2915 22.5554C79.0953 22.7159 80.0029 22.4216 80.6512 21.9401C81.3254 21.4586 81.8959 20.7631 82.233 19.9873C82.6219 19.051 82.8294 18.0077 82.9331 16.9645C83.0628 15.4664 83.0109 13.9684 83.1146 12.4436C83.1924 11.2665 83.1406 10.0895 83.0887 8.91248C83.0368 7.84245 82.959 6.74567 82.8035 5.67563C82.7257 5.16737 82.6219 4.63235 82.4145 4.17759C82.1293 3.48207 81.6625 2.84005 81.0402 2.46554C80.4956 2.17128 79.8214 2.06428 79.1991 2.17128C78.2655 2.33179 77.358 2.9203 76.7097 3.64257C75.4909 4.98011 74.9982 6.87942 75.3613 8.67172C75.4391 9.04623 75.9577 9.15324 76.1651 9.501C76.1911 9.58125 76.217 9.715 76.1392 9.715C74.6871 9.31374 73.1053 9.34049 71.6272 9.63475C71.5235 9.6615 71.6532 9.47425 71.705 9.36724C71.9643 9.04623 72.4311 8.99273 72.7423 8.72522C72.8719 8.59147 72.9497 8.35071 72.9497 8.13671C72.9238 7.22718 72.7423 6.2909 72.5348 5.40813C72.3014 4.5521 72.0421 3.72283 71.5494 3.00056C71.3679 2.7063 71.1086 2.43879 70.7974 2.27828C70.0195 1.85027 68.2821 1.82352 67.5561 2.33179C66.9078 2.78655 66.441 3.53557 66.1299 4.31135C65.5594 5.64888 65.326 7.14693 65.1704 8.59147C64.937 10.6513 64.937 12.7111 64.9111 14.7442C64.9111 16.8307 65.1186 19.0243 66.1039 20.8433C66.5188 21.5924 67.1671 22.2611 67.9191 22.6356Z" fill="#F58AB2"/>
<path d="M86.5501 7.78895C86.5501 7.84245 86.576 7.70869 86.576 7.68194C86.6019 7.60169 86.576 7.73544 86.5501 7.78895ZM90.2582 26.9158C89.6877 26.996 89.0395 26.9158 88.5208 26.6483C88.0541 26.4342 87.6651 26.0062 87.4058 25.5515C87.0946 24.9897 86.939 24.3209 86.8872 23.7057C86.7575 22.1809 87.2243 20.6561 88.1578 19.4523C88.7801 18.6765 89.6359 18.0345 90.5694 17.767C92.1252 17.3122 93.8367 18.0345 94.6146 19.479C95.0814 20.3351 95.3407 21.3783 95.1851 22.3414C94.9776 23.5452 94.3553 24.8292 93.3959 25.5247C92.4623 26.2202 91.3992 26.782 90.2582 26.9158ZM88.4949 22.6891C88.7283 23.4382 89.584 23.5184 90.2841 23.2509C91.3214 22.8496 92.4623 21.4586 92.4105 20.3083C92.3327 19.1313 90.8805 19.1313 89.9211 19.8001C89.1172 20.3618 88.2356 21.7261 88.4949 22.6891Z" fill="#F58AB2"/>
<path d="M102.878 24.6419C100.155 27.6648 95.306 26.3005 94.554 22.2611C94.2688 20.6561 94.6318 18.9975 94.8393 17.3657C95.4357 12.5506 97.6657 7.7622 100.777 4.09734C101.529 3.24131 102.256 2.33179 103.163 1.71652C103.863 1.235 104.693 0.994247 105.497 0.887244C106.819 0.75349 108.272 0.994247 109.464 1.60952C110.45 2.11778 111.279 2.89355 112.006 3.74958C113.147 5.06037 114.054 6.61191 114.832 8.21696C115.869 10.357 116.673 12.6308 117.244 14.9582C117.684 16.804 117.97 18.7033 117.892 20.6026C117.866 21.4586 117.814 22.3414 117.555 23.1439C117.399 23.6522 117.114 24.1604 116.751 24.5349C116.103 25.1502 115.169 25.4712 114.313 25.6317C112.913 25.8725 111.461 25.819 110.113 25.4712C109.309 25.284 108.531 24.7757 107.934 24.1872C106.742 23.0101 105.912 21.5121 104.952 20.1211C104.563 21.7261 103.967 23.4114 102.878 24.6419ZM97.3805 23.4917C97.6917 23.6522 98.0806 23.7324 98.4437 23.6789C99.0401 23.6254 99.6365 23.2777 100.103 22.8764C100.829 22.2879 101.426 21.5389 101.867 20.7096C102.463 19.6663 102.826 18.4625 103.163 17.3122C103.215 17.1517 103.422 16.4562 103.422 16.2689C103.422 16.1887 103.293 16.1084 103.215 16.0549C102.982 15.9747 102.748 15.9479 102.489 15.9212C103.033 15.8409 106.145 15.3594 106.664 15.2524C106.742 15.2524 106.845 15.3862 106.897 15.4129C106.482 15.6804 106.041 15.8944 105.601 16.0549C105.86 17.5262 106.067 19.051 106.586 20.4421C106.923 21.3783 107.468 22.3146 108.272 22.9031C108.842 23.3312 109.542 23.6789 110.242 23.6254C110.942 23.5452 111.643 23.1171 112.135 22.5821C112.654 21.9936 113.043 21.2178 113.198 20.4153C113.38 19.5593 113.38 18.623 113.354 17.7402C113.276 16.3492 113.069 14.9582 112.706 13.6206C112.343 12.2563 110.164 6.47816 109.438 5.30112C108.816 4.28459 107.934 3.37507 106.897 2.8133C106.301 2.49229 105.575 2.27828 104.926 2.43879C103.941 2.67955 103.111 3.40182 102.411 4.15084C99.8958 6.93292 97.9769 10.4373 96.9397 14.1021C96.447 15.8142 96.1099 17.5797 96.0062 19.372C95.9802 20.1478 95.9543 20.9771 96.1099 21.7529C96.1877 22.1274 96.3173 22.5286 96.5766 22.8496C96.81 23.0904 97.0693 23.3312 97.3805 23.4917ZM106.871 7.65519C107.986 9.68825 106.56 12.2296 104.304 12.2296C102.281 12.2296 101.452 9.74175 102.437 7.8692C103.085 6.66541 104.46 5.75589 105.652 6.37115C106.171 6.63866 106.612 7.12018 106.871 7.65519ZM103.734 10.1965C103.837 10.5978 104.148 10.8385 104.512 10.8385C105.264 10.8385 106.016 10.143 106.093 9.36724C106.145 9.07298 106.041 8.69847 105.808 8.48447C105.601 8.32396 105.315 8.27046 105.056 8.29721C104.174 8.32396 103.474 9.31374 103.734 10.1965Z" fill="#F58AB2"/>
<path d="M132.453 26.354C130.405 26.782 128.252 26.9425 126.204 26.6215C124.674 26.3807 123.17 25.7655 121.899 24.8559C120.162 23.6254 118.736 21.8064 117.932 19.8001C116.869 17.2855 116.402 14.3429 116.817 11.6411C117.154 9.4475 118.113 7.33418 119.488 5.62213C121.277 3.40182 123.74 1.79677 126.489 1.10125C128.071 0.699987 129.756 0.646486 131.39 0.860493C132.712 1.04775 134.061 1.39551 135.254 2.01078C136.032 2.38529 136.861 2.94705 137.25 3.72283C137.639 4.52535 137.847 5.46163 137.795 6.37115C137.743 7.09343 137.536 7.8157 137.173 8.43097C136.784 9.12649 136.161 9.715 135.461 10.1163C134.605 10.6245 133.62 10.892 132.635 10.9723C131.494 11.0525 130.275 10.999 129.186 11.3736C128.667 11.5608 128.2 11.9086 127.837 12.3366C127.111 13.2729 126.748 14.5301 126.696 15.7072C126.671 16.0282 126.645 16.4562 126.93 16.4562C127.604 16.4562 129.082 16.483 129.445 15.8944C129.86 15.2257 129.704 14.3161 130.067 13.6206C130.301 13.2194 130.664 12.8716 131.027 12.5773C131.753 12.0156 132.661 11.6143 133.542 11.5608C133.905 11.5341 134.268 11.5876 134.605 11.6946C135.824 12.0958 137.043 12.6843 137.976 13.6206C139.014 14.6639 139.662 16.0817 140.103 17.4995C140.31 18.195 140.336 18.9708 140.232 19.6663C139.973 21.4318 138.936 23.1974 137.536 24.2407C136.032 25.3107 134.242 25.9527 132.453 26.354ZM123.196 22.6356C124.933 23.3579 126.878 23.5719 128.771 23.4382C130.327 23.3312 131.909 23.0636 133.335 22.4216C134.242 21.9936 135.176 21.3783 135.72 20.4956C136.602 19.0778 136.81 17.1517 136.472 15.4932C136.317 14.6371 136.032 13.7276 135.409 13.1391C134.294 12.0958 132.427 12.5238 131.364 13.6206C130.819 14.2091 130.431 15.0652 130.456 15.8677C130.482 16.6167 130.768 17.3122 131.001 18.0345C131.079 18.3288 130.69 17.981 130.431 17.8205C130.223 17.6867 130.093 17.4727 129.886 17.3122C129.782 17.2052 129.627 17.125 129.471 17.1517C128.278 17.2855 126.982 17.4192 125.841 16.9912C125.167 16.7772 124.57 16.2422 124.233 15.6002C123.792 14.6906 123.74 13.5136 123.922 12.4971C124.103 11.5073 124.492 10.5175 125.115 9.76851C125.452 9.36724 125.867 9.01948 126.333 8.80548C126.645 8.67172 127.008 8.61822 127.345 8.56472C128.745 8.40422 130.145 8.51122 131.546 8.59147C132.298 8.61822 133.101 8.37746 133.698 7.9227C134.268 7.52144 134.709 6.85267 134.865 6.15715C135.02 5.48838 134.891 4.76611 134.554 4.17759C134.165 3.48207 133.516 2.94705 132.816 2.62604C131.597 2.06428 130.171 1.98403 128.823 2.09103C126.982 2.25153 125.037 2.73305 123.455 3.74958C122.081 4.6591 120.862 5.94314 119.954 7.36093C119.332 8.29721 118.839 9.36724 118.58 10.4908C118.113 12.6041 118.061 14.8779 118.554 16.9912C118.865 18.2485 119.384 19.5058 120.214 20.4956C120.992 21.4586 122.055 22.1809 123.196 22.6356Z" fill="#F58AB2"/>
<path d="M151.344 26.4075C149.503 26.5413 147.558 26.3272 145.873 25.6317C144.084 24.8827 142.476 23.5184 141.387 21.8866C140.246 20.2013 139.52 18.2218 139.157 16.2154C138.482 12.6308 138.897 8.69847 140.272 5.32787C140.609 4.52535 141.179 3.77633 141.828 3.18781C142.891 2.27828 144.265 1.68977 145.588 1.28851C147.999 0.539483 150.592 0.218473 153.082 0.566234C154.586 0.806991 156.167 1.28851 157.334 2.33179C157.801 2.7598 158.216 3.32157 158.449 3.93683C158.683 4.5521 158.76 5.27437 158.709 5.94314C158.683 6.45141 157.957 8.19021 158.164 8.64497C158.786 9.95576 159.02 11.5073 158.89 12.9518C158.812 13.9416 158.553 14.9582 158.112 15.8409C158.008 16.0282 157.853 16.1619 157.749 16.3224C158.372 17.2855 158.631 18.4893 158.631 19.6395C158.657 20.8433 158.475 22.1006 157.879 23.1171C157.386 23.9197 156.66 24.6152 155.856 25.0967C154.508 25.926 152.9 26.3005 151.344 26.4075ZM144.213 21.6459C145.847 22.5554 147.869 22.6089 149.711 22.4751C151.163 22.3681 152.745 22.1541 153.885 21.2446C154.404 20.8433 154.845 20.2548 154.923 19.6128C155.026 18.8905 154.637 18.1148 154.171 17.5797C153.367 16.7237 152.226 16.1619 151.085 15.9212C149.088 15.5467 146.988 15.7339 144.939 15.9479C144.861 15.8677 144.861 15.4664 144.81 15.3594C144.913 15.2524 144.965 15.1187 144.991 14.9849C145.017 14.9314 145.069 14.7709 145.147 14.7709C145.769 14.8512 149.244 14.9314 149.866 14.9314C150.774 14.9047 151.681 14.7442 152.537 14.3964C153.678 13.9684 154.793 13.1926 155.545 12.1761C156.038 11.4806 156.245 10.3838 155.882 9.608C155.545 8.83223 154.767 8.21696 153.963 8.0297C153.211 7.84245 152.433 7.8692 151.655 7.9762C150.125 8.19021 148.621 8.72522 147.169 9.28699C146.91 8.96598 146.754 8.56472 146.729 8.13671C146.703 7.9762 146.729 7.7622 146.832 7.65519C146.91 7.57494 147.066 7.54819 147.169 7.54819C147.558 7.57494 147.921 7.54819 148.284 7.54819C149.373 7.46794 150.463 7.36093 151.552 7.20043C152.2 7.09343 152.822 7.01317 153.445 6.82592C155.441 6.26415 156.816 3.88333 155.182 2.57254C154.637 2.14453 153.911 1.93052 153.237 1.82352C151.629 1.55601 149.918 1.74327 148.336 2.14453C146.936 2.51904 145.536 3.05406 144.265 3.80308C143.357 4.31135 142.476 4.98011 141.905 5.86289C141.335 6.77242 141.076 7.89595 140.946 8.96598C140.713 10.9188 140.609 12.9518 140.894 14.9047C141.127 16.5632 141.568 18.2218 142.372 19.6663C142.813 20.4421 143.435 21.2178 144.213 21.6459Z" fill="#F58AB2"/>
<path d="M176.366 26.8355C174.966 26.9425 173.436 26.3807 172.399 25.4445C171.18 24.3477 170.48 22.7694 169.624 21.3516C169.391 22.7694 168.769 24.1872 167.835 25.2572C167.316 25.8725 166.616 26.4342 165.864 26.675C165.268 26.8623 164.62 26.8355 164.023 26.675C163.064 26.4342 162.182 25.7922 161.482 25.0967C160.315 23.9464 159.408 22.4216 158.993 20.8166C158.681 19.5593 158.578 18.2485 158.5 16.9645C158.37 14.3696 158.448 11.7481 158.837 9.17999C159.044 7.68194 159.33 6.15715 160.03 4.81961C160.341 4.28459 160.756 3.80308 161.197 3.34832C161.715 2.78655 162.286 2.25153 162.934 1.79677C163.608 1.34201 164.49 1.1815 165.294 1.1815C167.031 1.1815 168.82 1.87702 170.273 2.8668C170.791 3.24131 171.465 3.00056 171.803 2.43879C172.477 1.44901 173.618 0.646486 174.785 0.43248C176.211 0.218473 177.767 0.699987 178.959 1.52926C180.075 2.30503 180.982 3.42857 181.527 4.68586C182.123 6.05015 182.486 7.54819 182.668 9.01948C182.953 11.4003 182.823 13.8079 182.642 16.1887C182.46 18.623 182.279 21.1376 181.319 23.3847C180.93 24.3744 180.334 25.3375 179.478 25.9795C178.985 26.3807 176.963 26.782 176.366 26.8355ZM173.151 23.4917C174.24 24.1604 176.185 23.8662 177.092 22.9566C177.481 22.5554 177.767 22.0204 177.974 21.4854C178.571 20.0408 178.856 18.4625 179.115 16.9377C179.452 14.7709 179.66 12.5773 179.66 10.3838C179.686 8.40422 179.478 6.3444 178.804 4.4986C178.026 2.46554 175.874 1.128 174.059 2.27828C173.307 2.7598 172.762 3.58907 172.425 4.41835C171.854 5.78264 171.699 7.33418 171.725 8.80548C171.725 11.2665 172.114 13.7276 172.866 16.0282C172.969 16.3492 172.477 15.8142 172.347 15.5199C171.673 14.0219 171.336 12.3633 171.154 10.7048C171.025 9.68825 169.184 5.86289 168.717 4.92661C167.913 3.37507 165.838 1.95727 164.205 2.41204C163.634 2.57254 163.116 2.9203 162.675 3.32157C161.871 4.01709 161.3 4.98011 160.86 5.96989C159.874 8.32396 159.615 11.0258 159.667 13.5939C159.719 15.7072 159.9 17.8472 160.497 19.8803C160.782 20.8166 161.145 21.7529 161.767 22.5286C162.208 23.0636 162.882 23.5452 163.582 23.5719C164.257 23.5987 164.957 23.3312 165.475 22.9031C166.046 22.4216 166.435 21.7261 166.694 21.0306C167.342 19.265 167.472 17.2052 167.083 15.3594C166.979 14.7709 166.824 14.1824 166.616 13.6474C166.539 13.4869 166.253 12.8181 166.253 12.6576C166.253 12.5773 166.331 12.4703 166.409 12.4168C167.498 13.8079 167.939 15.6537 168.743 17.232C169.443 18.5963 170.273 19.9071 171.128 21.1643C171.569 21.8064 172.036 22.4216 172.555 22.9834C172.736 23.1707 172.943 23.3579 173.151 23.4917Z" fill="#F58AB2"/>
<path d="M194.463 26.3272C192.051 26.568 189.484 25.8725 187.384 24.6419C186.554 24.1604 185.828 23.4917 185.206 22.7426C184.246 21.5656 183.52 20.1478 183.001 18.6765C182.172 16.3224 181.964 13.6474 182.457 11.1863C183.027 8.35071 184.48 5.78264 186.554 3.88333C188.084 2.51904 189.977 1.50251 191.948 1.0745C194.281 0.566234 196.875 0.806991 199.053 1.79677C200.401 2.43879 201.594 3.45532 202.527 4.63235C203.15 5.46163 203.643 6.50491 203.746 7.54819C203.798 7.9762 203.72 8.45772 203.565 8.85898C203.279 9.6615 202.735 10.3838 202.035 10.8118C200.972 11.4538 199.649 11.6411 198.43 11.6143C197.86 11.6143 197.289 11.5073 196.719 11.4003C196.278 11.2933 195.785 11.3201 195.319 11.4538C194.463 11.6678 193.659 12.2296 193.037 12.8983C192.648 13.2729 192.388 13.7811 192.207 14.2894C191.974 14.8779 191.792 15.5467 191.844 16.1619C193.503 15.7339 194.956 14.6907 196.434 13.8079C197.315 13.2996 198.249 12.7646 199.26 12.6041C200.116 12.4703 201.075 12.6041 201.853 13.0589C202.839 13.5939 203.591 14.6104 204.006 15.6804C204.706 17.5797 204.472 19.7465 203.357 21.4854C203.124 21.8599 202.813 22.2076 202.527 22.5286C201.775 23.3312 200.972 24.1337 200.012 24.6687C198.327 25.605 196.382 26.1132 194.463 26.3272ZM191.74 22.8229C193.763 23.0636 195.915 22.6089 197.73 21.6726C198.819 21.1108 199.805 20.2548 200.479 19.2115C200.946 18.4893 201.283 17.6332 201.309 16.7505C201.309 16.3759 201.257 16.0014 201.127 15.6269C200.998 15.1989 200.79 14.7174 200.427 14.4499C200.09 14.1824 199.597 14.1556 199.208 14.2091C198.379 14.3429 197.601 14.7442 196.849 15.1187C195.915 15.6002 195.007 16.1352 194.048 16.6167C193.348 16.9645 192.596 17.3122 191.818 17.3657C191.325 17.3925 190.236 17.0447 189.899 16.697C189.329 16.0549 189.017 15.1454 188.94 14.2626C188.784 12.5238 189.562 10.6513 190.703 9.39399C191.481 8.56472 192.596 8.00295 193.685 7.70869C194.178 7.57494 194.722 7.62844 195.215 7.7622C196.045 7.9762 196.823 8.40422 197.678 8.59147C198.223 8.72522 198.897 8.72522 199.364 8.40422C200.375 7.70869 200.66 6.0769 200.116 4.95336C199.727 4.17759 199.027 3.61582 198.301 3.18781C197.212 2.57254 195.889 2.30503 194.644 2.33179C193.27 2.35854 191.87 2.73305 190.599 3.32157C189.043 4.04384 187.565 5.14062 186.476 6.53166C185.595 7.62844 184.998 8.96598 184.583 10.3303C184.039 12.3098 183.883 14.4766 184.35 16.483C184.557 17.446 184.946 18.3823 185.517 19.1848C185.958 19.8536 186.528 20.4153 187.15 20.8968C188.473 21.9134 190.107 22.6356 191.74 22.8229Z" fill="#F58AB2"/>
<path d="M217.429 26.4075C216.547 26.8355 215.484 27.1298 214.525 26.9425C213.98 26.8355 213.436 26.5413 212.969 26.1935C212.165 25.605 211.491 24.8559 210.92 24.0267C210.454 23.3579 210.039 22.5821 209.857 21.7796C209.313 19.5593 209.468 17.232 209.598 14.9314C207.809 13.0321 205.76 11.3736 204.282 9.20674C203.763 8.45772 203.219 7.65519 202.986 6.74567C202.7 5.78264 202.752 4.73936 203.089 3.80308C203.452 2.78655 204.178 1.85027 205.034 1.235C206.175 0.378979 207.679 -0.0490347 209.079 0.00446782C209.857 0.0312183 210.661 0.245225 211.387 0.592984C212.736 1.1815 213.954 2.14453 214.966 3.26806C215.069 3.40182 215.225 3.53557 215.38 3.58907C215.588 3.64257 215.821 3.58907 216.029 3.48207C216.34 3.32157 216.599 3.10756 216.859 2.8668C217.766 1.98403 218.777 1.1815 219.892 0.646486C220.696 0.271975 221.63 0.0312183 222.512 0.138222C223.471 0.271975 224.404 0.78024 225.105 1.47576C226.246 2.6528 226.998 4.3916 226.998 6.05015C227.023 6.77242 226.842 7.52144 226.505 8.16346C225.312 10.464 223.523 12.3901 221.811 14.3161C221.552 14.5836 220.619 15.5199 220.541 15.8944C220.463 16.3224 220.489 18.623 220.463 19.0778C220.437 20.3618 220.333 21.6726 219.97 22.9299C219.711 23.8127 219.27 24.6954 218.7 25.4177C218.363 25.8457 217.896 26.1667 217.429 26.4075ZM210.739 19.8268C210.946 21.5924 211.776 23.7859 213.513 23.6522C214.369 23.5987 215.199 22.9299 215.692 22.1809C216.236 21.3248 216.521 20.2816 216.677 19.265C216.884 17.8472 216.833 16.3759 216.729 14.9314C216.651 13.2461 219.918 10.6245 221.111 9.4475C221.76 8.83223 222.33 8.13671 222.823 7.36093C223.264 6.69216 223.627 5.96989 223.782 5.19412C224.119 3.53557 223.212 1.79677 221.578 1.63627C220.826 1.55601 220.048 1.87702 219.374 2.25153C217.662 3.29481 216.314 4.95336 215.199 6.66541C214.525 7.65519 213.902 8.72522 213.436 9.84876C213.436 9.87551 213.202 9.95576 213.176 9.92901C213.15 9.87551 213.021 9.76851 213.047 9.715C213.228 9.01948 213.643 8.37746 213.851 7.65519C213.98 7.22718 213.98 6.69216 213.773 6.2909C213.176 4.98011 212.139 3.85658 210.998 3.02731C210.013 2.33179 208.846 1.77002 207.679 1.79677C205.579 1.85027 203.971 3.80308 204.412 5.91639C204.593 6.77242 205.086 7.54819 205.605 8.24371C206.305 9.23349 207.16 10.0895 208.042 10.9188C208.768 11.5608 209.52 12.2028 210.35 12.6843C210.505 12.7913 210.635 12.9251 210.687 13.1124C210.869 13.5404 210.843 14.0486 210.817 14.5034C210.635 16.2689 210.505 18.088 210.739 19.8268Z" fill="#F58AB2"/>
</g>
<defs>
<filter id="filter0_d_171_575" x="0" y="0" width="228.5" height="28.5" filterUnits="userSpaceOnUse" color-interpolation-filters="sRGB">
<feFlood flood-opacity="0" result="BackgroundImageFix"/>
<feColorMatrix in="SourceAlpha" type="matrix" values="0 0 0 0 0 0 0 0 0 0 0 0 0 0 0 0 0 0 127 0" result="hardAlpha"/>
<feOffset dx="1" dy="1"/>
<feGaussianBlur stdDeviation="0.25"/>
<feComposite in2="hardAlpha" operator="out"/>
<feColorMatrix type="matrix" values="0 0 0 0 0 0 0 0 0 0 0 0 0 0 0 0 0 0 0.25 0"/>
<feBlend mode="normal" in2="BackgroundImageFix" result="effect1_dropShadow_171_575"/>
<feBlend mode="normal" in="SourceGraphic" in2="effect1_dropShadow_171_575" result="shape"/>
</filter>
</defs>
</svg>
