<svg width="275" height="45" viewBox="0 0 275 45" fill="none" xmlns="http://www.w3.org/2000/svg">
<path d="M275 0H0V45H275V0Z" fill="#141414"/>
<path fill-rule="evenodd" clip-rule="evenodd" d="M100.369 22.4996C100.369 13.2462 105.109 5.84375 113.656 5.84375C122.206 5.84375 126.944 13.2462 126.944 22.4996C126.944 31.7546 122.204 39.1554 113.658 39.1554C105.109 39.1554 100.369 31.7546 100.369 22.4996ZM113.656 34.5358C116.981 34.5358 118.396 28.9828 118.396 22.5122C118.396 16.0384 116.97 10.4886 113.656 10.4886C110.343 10.4886 108.917 16.04 108.917 22.5122C108.905 28.9828 110.332 34.5358 113.656 34.5358ZM12.093 6.31514V15.1082H12.5648L18.7311 6.31514H27.2673L15.8782 16.4878L16.3499 16.9482L37.2316 6.30415V13.7066L18.7198 20.1788V20.6376L37.2316 19.0223V25.9659L18.7198 24.3506V24.811L37.2316 31.2816V38.6856L16.3499 28.04L15.8782 28.5004L27.2673 38.6731H18.7311L12.5648 29.88H12.093V38.6731H5.92676V6.29317H12.093V6.31514ZM42.9486 6.31514H51.0147L50.543 25.7412H51.0147L60.5054 6.31514H67.6263V38.6966H59.5618L60.0336 19.269H59.5618L50.068 38.6982H42.947L42.9486 6.31514ZM81.3858 6.31514H73.3213V38.6966H81.3858V24.3506H88.0237V38.6966H96.0882V6.31514H88.0237V18.8102H81.3858V6.31514ZM153.992 6.31514H131.223V38.6966H139.289V11.8666H145.927V38.6966H153.992V6.31514ZM158.26 22.4996C158.26 13.2462 163 5.84375 171.548 5.84375C180.085 5.84375 184.836 13.2462 184.836 22.4996C184.836 31.7546 180.096 39.1554 171.548 39.1554C163.012 39.1554 158.26 31.7546 158.26 22.4996ZM171.548 34.5358C174.873 34.5358 176.289 28.9828 176.289 22.5122C176.289 16.0384 174.862 10.4886 171.548 10.4886C168.224 10.4886 166.809 16.04 166.809 22.5122C166.809 28.9828 168.224 34.5358 171.548 34.5358ZM197.169 6.31514H189.104V38.6966H196.225L205.718 19.269H206.19L205.718 38.6966H213.782V6.31514H206.661L197.169 25.7412H196.697L197.169 6.31514ZM235.147 27.5922L242.74 28.5114C241.313 34.9852 237.999 39.1554 230.924 39.1554C222.387 39.1554 218.061 31.7546 218.061 22.4996C218.061 13.2462 222.376 5.84375 230.924 5.84375C237.85 5.84375 241.313 10.0061 242.74 16.018L235.147 17.8674C234.675 14.6258 233.294 10.4665 230.924 10.4665C228.082 10.4665 226.609 16.018 226.609 22.4886C226.609 28.9152 228.082 34.5123 230.924 34.5123C233.249 34.5358 234.662 30.8338 235.147 27.5922ZM254.128 6.31672H246.536V38.6966H254.128V24.3506H254.6L260.295 38.6966H269.073L260.766 22.0408L268.831 6.31514H260.766L254.6 20.6612H254.128V6.31514V6.31672Z" fill="#FBFBF9"/>
</svg>
